<svg width="320" height="227" viewBox="0 0 320 227" fill="none" xmlns="http://www.w3.org/2000/svg">
<path d="M0 206.029C0 217.074 8.95431 226.029 20 226.029H300C311.046 226.029 320 217.074 320 206.029V20.0006C320 8.95488 311.046 0.000549316 300 0.000549316H20C8.9543 0.000549316 0 8.95486 0 20.0005V206.029Z" fill="#34A853" fill-opacity="0.2"/>
<g opacity="0.5">
<g opacity="0.5">
<g opacity="0.5">
<g opacity="0.5">
<g opacity="0.5">
<path opacity="0.5" d="M248.043 49.367C248.043 49.367 233.618 42.3481 218.984 54.5173C218.984 54.5173 204.616 63.8969 206.823 78.4338C209.03 92.9707 213.135 107.4 210.363 116.748C207.59 126.096 207.236 132.632 211.733 132.604C211.733 132.604 200.608 143.314 200.138 158.649C199.669 173.983 209.198 179.203 209.198 179.203L244.454 164.262L251.696 122.838L248.043 49.367Z" fill="url(#paint0_linear_446_1349)"/>
</g>
</g>
</g>
</g>
</g>
<g opacity="0.5">
<g opacity="0.5">
<g opacity="0.5">
<g opacity="0.5">
<g opacity="0.5">
<path opacity="0.5" d="M15.6801 201.164C15.6801 201.164 13.516 150.212 57.9849 138.874L58.8247 129.319C58.8247 129.319 51.2744 119.77 49.68 110.789C49.68 110.789 42.013 106.837 43.0689 98.1037C44.1247 89.3699 46.7857 87.39 46.7857 87.39C46.7857 87.39 36.2195 42.0467 88.4781 53.302L80.4227 223.833L15.6801 201.164Z" fill="url(#paint1_linear_446_1349)"/>
</g>
</g>
</g>
</g>
</g>
<path d="M237.951 129.429C237.951 129.429 230.303 134.154 225.013 140.163H238.222L237.951 129.429Z" fill="#EDF5F7"/>
<path d="M258.61 129.429C258.61 129.429 265.002 133.631 267.631 138.874H257.837L258.61 129.429Z" fill="#EDF5F7"/>
<path d="M213.583 103.91C213.583 103.91 214.998 116.34 212.838 121.196C210.677 126.053 211.082 125.918 216.078 126.053C221.074 126.188 233.361 122.273 233.361 122.273L214.412 88.7874L212.838 92.703L213.583 103.91Z" fill="#261E1A"/>
<path d="M259.555 132.645V117.817H236.882V132.251C236.882 132.251 234.036 136.449 233.361 137.8C232.686 139.15 234.036 153.462 238.897 162.239C238.897 162.239 260.23 147.926 262.255 144.821C264.281 141.715 259.555 132.645 259.555 132.645Z" fill="#FFD2A9"/>
<path d="M257.837 119.85C257.837 119.85 265.444 134.156 233.361 132.645V119.85H257.837Z" fill="#DDA983"/>
<path d="M268.015 93.7831C268.015 110.636 262.074 124.298 241.192 124.298C221.208 124.298 214.367 110.636 214.367 93.7831C214.367 69.8995 224.089 63.2684 241.192 63.2684C256.006 63.2684 268.015 76.9304 268.015 93.7831Z" fill="#FFD2A9"/>
<path d="M228.635 94.9308C228.635 96.6834 227.214 98.1038 225.462 98.1038C223.709 98.1038 222.289 96.6834 222.289 94.9308C222.289 93.1782 223.709 91.7578 225.462 91.7578C227.214 91.7578 228.635 93.1782 228.635 94.9308Z" fill="#352A24"/>
<path d="M247.979 74.5349C247.979 74.5349 256.636 87.1924 256.314 99.8843C255.992 112.576 254.236 122.163 251.696 122.838C249.156 123.513 253.967 122.707 253.967 122.707L261.123 117.817C261.123 117.817 264.677 89.9441 257.837 82.0869C250.997 74.2303 247.979 74.5349 247.979 74.5349Z" fill="#DDA983"/>
<path d="M247.538 94.9308C247.538 96.6834 246.117 98.1038 244.365 98.1038C242.612 98.1038 241.192 96.6834 241.192 94.9308C241.192 93.1782 242.612 91.7578 244.365 91.7578C246.117 91.7578 247.538 93.1782 247.538 94.9308Z" fill="#352A24"/>
<path d="M233.36 95.8084C233.36 95.8084 228.905 103.421 229.85 105.15C230.795 106.88 233.36 107.15 233.36 107.15" stroke="#E0A282" stroke-width="2.66667" stroke-miterlimit="10"/>
<path d="M234.17 113.091C234.17 113.091 239.031 116.602 243.622 112.146" stroke="#E0A282" stroke-width="2.66667" stroke-miterlimit="10"/>
<path d="M239.571 85.8169C239.571 85.8169 244.027 82.0363 248.618 85.8169" stroke="#352A24" stroke-width="2.66667" stroke-miterlimit="10"/>
<path d="M227.555 85.8169C227.555 85.8169 224.449 82.8464 221.344 85.8169" stroke="#352A24" stroke-width="2.66667" stroke-miterlimit="10"/>
<path d="M225.462 73.5975C225.462 73.5975 228.77 70.4245 235.521 70.8295C242.272 71.2346 249.428 75.2852 249.428 75.2852C249.428 75.2852 243.69 63.2824 237.445 61.7901C231.2 60.2979 224.989 63.2684 224.449 65.9688C223.909 68.6692 225.462 73.5975 225.462 73.5975Z" fill="#261E1A"/>
<path d="M225.462 73.5975C225.462 73.5975 223.505 63.8846 232.512 64.0099C241.518 64.1352 254.154 79.7409 257.259 91.7578C260.365 103.775 255.099 127.359 252.264 131.094C252.264 131.094 258.61 130.824 263.2 127.089C267.791 123.353 275.622 112.686 274.947 91.7578C274.272 70.8296 265.496 46.1763 234.846 48.5111C222.289 49.6312 221.344 57.4625 221.344 57.4625C221.344 57.4625 219.589 69.6144 225.462 73.5975Z" fill="#352A24"/>
<path d="M225.462 73.5975C225.462 73.5975 218.592 72.3661 215.714 80.5765C215.714 80.5765 211.982 97.6258 214.367 114.405C214.367 114.405 210.947 92.838 210.407 81.9013C209.867 70.9646 214.322 57.0574 222.289 57.3274L225.462 73.5975Z" fill="#352A24"/>
<path d="M235.702 134.019C235.702 134.019 235.116 150.731 238.897 160.198C238.897 160.198 255.774 137.29 260.5 134.642L279.133 152.728L271.977 225.159H209.777C209.777 225.159 211.757 156.973 216.483 149.142C221.209 141.311 229.718 137.26 229.718 137.26L235.702 134.019Z" fill="#D16176"/>
<path d="M235.702 134.019C235.702 134.019 226.526 162.259 224.449 179.589C222.372 196.92 220.392 225.171 220.392 225.171H213.34L224.449 151.707L233.361 135.287L235.702 134.019Z" fill="#BC536A"/>
<path d="M260.5 134.642L257.837 168.488L254.789 225.172H259.321L262.056 136.153L260.5 134.642Z" fill="#BC536A"/>
<path d="M260.5 134.642C260.5 134.642 258.204 180.264 257.799 192.788C257.394 205.31 256.314 225.159 256.314 225.159H280.078C280.078 225.159 290.474 154.289 289.529 152.728C288.584 151.167 260.5 134.642 260.5 134.642Z" fill="#EDF5F7"/>
<path d="M233.36 135.287C233.36 135.287 225.664 161.969 223.369 177.294C221.073 192.618 218.643 225.158 218.643 225.158H195.302C195.302 225.158 200.82 171.015 206.626 156.433C212.432 141.85 218.422 142.744 221.098 141.149C223.774 139.555 233.36 135.287 233.36 135.287Z" fill="#EDF5F7"/>
<path d="M259.321 158.601C259.321 158.601 264.145 158.427 266.306 160.198C268.466 161.969 274.894 163.589 274.988 164.939C275.082 166.29 272.951 173.986 272.951 173.986" stroke="#CEDADD" stroke-width="2.66667" stroke-miterlimit="10"/>
<path d="M233.198 142.145C233.198 142.145 233.263 164.776 238.222 166.291C243.179 167.806 248.923 152.002 259.322 140.255" stroke="#BC536A" stroke-width="1.33333" stroke-miterlimit="10"/>
<path d="M287.126 150.897C287.126 150.897 293.04 152.949 297.09 166.978C301.141 181.007 303.572 203.15 303.977 207.336H280.213C280.213 207.336 280.942 159.808 287.126 150.897Z" fill="#EDF5F7"/>
<path d="M243.622 162.239L289.59 172.341L280.078 225.159L238.896 221.648L243.622 162.239Z" fill="#202B2D"/>
<path d="M272.952 199.048L266.711 196.129C266.711 196.129 264.479 190.998 262.76 188.838C261.04 186.678 259.96 184.922 256.854 184.112C253.749 183.302 252.264 182.807 250.238 183.527C248.213 184.247 243.757 183.624 243.622 185.353C243.487 187.083 244.454 188.248 244.454 188.248C244.454 188.248 239.302 186.173 238.221 188.248C237.141 190.323 238.896 192.787 238.896 192.787C238.896 192.787 236.601 194.509 236.736 196.129C236.871 197.749 237.951 199.048 237.951 199.048C237.951 199.048 236.185 201.395 236.731 202.88C237.276 204.365 238.221 205.716 238.221 205.716C238.221 205.716 237.546 207.201 239.302 209.361C241.057 211.522 243.217 212.062 245.648 212.197C248.078 212.332 260.095 212.602 261.85 212.872C263.605 213.142 271.842 217.328 271.842 217.328L272.952 199.048Z" fill="#FFD2A9"/>
<path d="M238.896 192.787L241.327 195.319" stroke="#E0A282" stroke-width="2.66667" stroke-miterlimit="10"/>
<path d="M237.951 199.048L240.111 200.253" stroke="#E0A282" stroke-width="2.66667" stroke-miterlimit="10"/>
<path d="M238.221 205.716L241.327 206.796" stroke="#E0A282" stroke-width="2.66667" stroke-miterlimit="10"/>
<path d="M303.706 204.756C303.706 204.756 304.922 211.116 303.976 213.682C303.031 216.247 297.225 225.564 292.095 225.158C286.964 224.753 269.681 220.433 269.681 220.433L271.977 195.319L303.706 204.756Z" fill="#EDF5F7"/>
<path d="M267.631 138.874C267.631 138.874 273.522 149.067 272.952 150.792C272.381 152.517 269.681 162.239 269.681 162.239" stroke="#CEDADD" stroke-width="2.66667" stroke-miterlimit="10"/>
<path d="M226.754 138.311C226.754 138.311 219.723 146.441 219.723 146.981C219.723 147.521 221.098 151.707 221.098 151.707" stroke="#CEDADD" stroke-width="2.66667" stroke-miterlimit="10"/>
<path d="M244.455 188.248C244.455 188.248 246.503 189.648 249.428 190.008" stroke="#E0A282" stroke-width="2.66667" stroke-miterlimit="10"/>
<path d="M229.222 150.556C229.222 150.556 223.858 150.087 222.478 150.897C221.098 151.707 216.167 152.202 215.897 153.282C215.627 154.362 219.228 185.958 220.488 191.673" stroke="#CEDADD" stroke-width="2.66667" stroke-miterlimit="10"/>
<path d="M286.147 152.728C286.147 152.728 282.268 162.329 282.433 170.768" stroke="#CEDADD" stroke-width="2.66667" stroke-miterlimit="10"/>
<path d="M219.723 141.745H219.722C216.674 142.813 211.584 143.98 206.626 156.433C200.82 171.015 195.302 225.159 195.302 225.159H204.159C204.447 221.542 205.973 203.365 209.507 176.866C213.467 147.161 219.723 141.745 219.723 141.745Z" fill="#D1DDE0"/>
<path d="M303.706 204.756L300.627 203.84C300.882 206.545 301.02 208.782 300.961 210.245C300.806 214.055 296.073 222.316 291.678 225.118C291.822 225.134 291.965 225.148 292.095 225.158C297.225 225.564 303.031 216.247 303.976 213.682C304.922 211.116 303.706 204.756 303.706 204.756Z" fill="#F5FBFC"/>
<path d="M297.09 166.978C293.04 152.948 287.126 150.897 287.126 150.897C286.814 151.346 286.517 151.897 286.232 152.531C287.083 153.187 287.711 153.708 287.999 154.019C289.979 156.163 297 173.896 298.26 184.112C299.301 192.553 300.587 201.858 300.902 207.336H303.976C303.571 203.15 301.141 181.007 297.09 166.978Z" fill="#F5FBFC"/>
<path d="M211.085 176.088C211.085 176.088 219.505 199.08 218.958 211.321C218.411 223.564 213.34 225.158 213.34 225.158H204.483L211.085 176.088Z" fill="#D1DDE0"/>
<path d="M209.68 168.488C209.68 168.488 217.603 191.435 218.227 202.199C218.853 212.963 204.483 205.716 204.483 205.716L209.68 168.488Z" fill="#D1DDE0"/>
<path d="M238.897 116.627C238.897 116.627 240.285 117.069 241.545 116.263C242.805 115.457 238.768 115.997 238.897 116.627Z" fill="#E0A086"/>
<g opacity="0.5">
<g opacity="0.5">
<g opacity="0.5">
<g opacity="0.5">
<g opacity="0.5">
<path opacity="0.5" d="M163.403 42.0466C163.403 42.0466 149.84 35.9615 138.389 43.4028C126.937 50.8441 130.018 82.0869 130.018 82.0869C130.018 82.0869 124.737 91.8559 131.84 97.5365C138.943 103.218 136.587 100.424 136.587 100.424C136.587 100.424 134.247 117.897 143.564 119.237L142.365 129.679C142.365 129.679 114.554 141.633 107.064 151.867C99.5735 162.101 108.175 178.892 108.195 180.398C108.215 181.905 142.365 176.077 142.365 176.077L161.365 166.291L163.403 42.0466Z" fill="url(#paint2_linear_446_1349)"/>
</g>
</g>
</g>
</g>
</g>
<path d="M88.9346 138.635C88.9346 138.635 98.5616 147.686 95.2865 147.956C93.697 148.087 88.9346 147.956 88.9346 147.956V138.635Z" fill="#EDF5F7"/>
<path d="M67.4277 137.825C67.4277 137.825 63.2555 142.371 62.4087 144.891L68.8535 144.306L67.4277 137.825Z" fill="#EDF5F7"/>
<path d="M88.4782 53.3021H70.5204C59.0101 53.3021 49.6802 62.6326 49.6802 74.1423V97.0489H109.319V74.1423C109.319 62.6326 99.9885 53.3021 88.4782 53.3021Z" fill="#352A24"/>
<path d="M90.1862 153.623H67.3677V123.648H90.1862V153.623Z" fill="#FFD2A9"/>
<path d="M90.1864 128.599C90.1864 128.599 80.7198 139.85 67.4272 137.825V123.648H90.1864V128.599Z" fill="#DDA983"/>
<path d="M88.5207 128.599H73.0835C62.7679 128.599 54.4058 120.237 54.4058 109.921V73.3908C54.4058 66.7629 59.7785 61.3901 66.4064 61.3901H95.0628C101.691 61.3901 107.064 66.7629 107.064 73.3908V110.056C107.064 120.297 98.7618 128.599 88.5207 128.599Z" fill="#FFD2A9"/>
<path d="M107.064 93.5384C107.064 93.5384 109.494 91.6481 111.25 94.3485C113.005 97.0489 107.064 106.627 107.064 106.627V93.5384Z" fill="#FFD2A9"/>
<path d="M107.064 100.424C107.064 100.424 107.231 97.9903 109.319 97.5366" stroke="#E0A282" stroke-width="2.66667" stroke-miterlimit="10"/>
<path d="M99.2929 96.6597C99.2929 98.739 97.8287 100.425 96.0222 100.425C94.2161 100.425 92.752 98.739 92.752 96.6597C92.752 94.5803 94.2161 92.8953 96.0222 92.8953C97.8287 92.8953 99.2929 94.5803 99.2929 96.6597Z" fill="#352A24"/>
<path d="M74.9892 96.6597C74.9892 98.739 73.525 100.425 71.7185 100.425C69.9124 100.425 68.4482 98.739 68.4482 96.6597C68.4482 94.5803 69.9124 92.8953 71.7185 92.8953C73.525 92.8953 74.9892 94.5803 74.9892 96.6597Z" fill="#352A24"/>
<path d="M86.6758 95.5637C86.6758 95.5637 91.8066 103.935 91.1315 105.42C90.4564 106.905 86.6758 108.796 86.6758 108.796" stroke="#E0A282" stroke-width="2.66667" stroke-miterlimit="10"/>
<path d="M91.1929 87.8675C91.1929 87.8675 94.5074 84.8776 97.6129 85.6974" stroke="#352A24" stroke-width="2.66667" stroke-miterlimit="10"/>
<path d="M74.9894 87.3274C74.9894 87.3274 70.2037 85.1331 66.2881 85.5549" stroke="#352A24" stroke-width="2.66667" stroke-miterlimit="10"/>
<path d="M84.5158 118.247C84.5158 118.247 79.25 119.004 76.4146 116.263" stroke="#E0A282" stroke-width="2.66667" stroke-miterlimit="10"/>
<path d="M70.6384 69.5046C70.6384 69.5046 90.0512 82.0616 102.338 75.4456C102.338 75.4456 103.553 81.2515 107.064 81.2515H108.191C108.191 81.2515 108.279 72.3401 107.604 69.5046C106.929 66.6692 105.909 60.7283 96.0224 59.6481C86.1356 58.5679 59.4014 60.5932 59.4014 60.5932L52.6504 70.291L53.4605 97.5366C53.4605 97.5366 55.7559 96.9139 56.566 93.5384C57.3761 90.1628 56.836 82.087 56.836 82.087C56.836 82.087 67.0393 79.3045 70.6384 69.5046Z" fill="#352A24"/>
<path d="M54.406 94.2135C54.406 94.2135 51.3005 90.7667 48.06 92.8951C44.8195 95.0236 48.06 107.091 54.406 106.661V94.2135Z" fill="#FFD2A9"/>
<path d="M49.6802 97.589C49.6802 97.589 53.3257 96.9139 54.4059 100.424" stroke="#E0A282" stroke-width="2.66667" stroke-miterlimit="10"/>
<path d="M67.368 141.673C67.368 141.673 78.1697 152.363 90.1866 144.891V142.686L106.389 150.025C106.389 150.025 113.68 208.306 112.87 224.644H46.8448C46.8448 224.644 44.8195 161.454 49.0052 155.918C53.1908 150.382 67.368 141.673 67.368 141.673Z" fill="#AFD7EF"/>
<path d="M90.1865 142.686C90.1865 142.686 98.3666 170.995 98.0793 190.619H103.014C103.014 190.619 96.9824 146.062 90.1865 142.686Z" fill="#9CC4D8"/>
<path d="M90.1865 142.686C90.1865 142.686 110.16 149.262 112.933 150.787C115.705 152.312 124.482 194.534 124.617 224.644H102.203C102.203 224.644 101.258 158.619 90.1865 142.686Z" fill="#EDF5F7"/>
<path d="M93.4502 143.325C93.4502 143.325 105.995 158.687 105.984 160.644C105.973 162.6 102.743 170.905 102.743 170.905C102.743 170.905 108.144 172.391 108.549 175.496C108.954 178.601 103.35 204.005 102.608 208.846" stroke="#CEDADD" stroke-width="2.66667" stroke-miterlimit="10"/>
<path d="M67.3679 141.673C67.3679 141.673 67.5029 176.747 67.3679 189.759C67.2329 202.77 66.6928 224.907 66.6928 224.907H17.9502C17.9502 224.907 18.6253 171.911 34.6928 158.649C50.7603 145.386 67.3679 141.673 67.3679 141.673Z" fill="#EDF5F7"/>
<path d="M62.9464 143.721C62.9464 143.721 56.4314 159.398 56.9715 161.709C57.5116 164.019 61.2922 170.365 61.2922 170.365C61.2922 170.365 55.8913 175.496 55.7563 178.804C55.6213 182.112 65.244 202.365 65.6307 205.201" stroke="#CEDADD" stroke-width="2.66667" stroke-miterlimit="10"/>
<path d="M77.6294 187.648L112.933 183.158L118.001 224.644H82.4902L77.6294 187.648Z" fill="#202B2D"/>
<path d="M34.9629 162.264C34.9629 162.264 42.9291 171.616 44.1443 189.759C45.3595 207.901 45.2245 225.172 45.2245 225.172" stroke="#CEDADD" stroke-width="2.66667" stroke-miterlimit="10"/>
<path d="M67.3677 135.53C67.3677 135.53 61.1568 137.963 56.431 146.873C51.7053 155.783 49.2749 168.205 49.2749 168.205" stroke="#132827" stroke-width="2.66667" stroke-miterlimit="10"/>
<path d="M90.1865 137.015C90.1865 137.015 105.017 145.515 105.973 162.598" stroke="#132827" stroke-width="2.66667" stroke-miterlimit="10"/>
<path d="M43.0688 192.503C43.367 197.556 43.8439 201.869 44.5125 202.679C46.1327 204.644 55.3142 208.83 58.8247 209.1" stroke="#A3A3A3" stroke-width="2.66667" stroke-miterlimit="10"/>
<path d="M57.9852 191.879C57.9247 183.585 56.9758 173.629 55.8545 171.834C53.1541 167.514 50.6335 168.189 48.0233 168.324C45.4131 168.459 43.2976 170.619 42.8477 174.4C42.5825 176.621 42.6452 185.311 43.0691 192.503" stroke="#132827" stroke-width="3.33333" stroke-miterlimit="10"/>
<path d="M48.0229 210.45C48.0229 210.45 55.1791 207.6 57.0694 202.679C57.7601 200.881 58.0199 196.655 57.9848 191.878" stroke="#A3A3A3" stroke-width="2.66667" stroke-miterlimit="10"/>
<path d="M78.0796 119.237C78.0796 119.237 79.4298 120.047 80.7352 120.047C80.7352 120.047 78.894 121.533 78.0796 119.237Z" fill="#E0A086"/>
<path d="M34.6928 158.649C18.6253 171.911 17.9502 224.908 17.9502 224.908H23.3624C23.4564 217.766 24.2238 194.356 30.1021 176.088C36.0193 157.697 50.183 148.69 54.4896 146.314C48.7193 148.949 41.6567 152.9 34.6928 158.649Z" fill="#D1DDE0"/>
<path d="M142.304 48.4413C142.304 48.4413 145.275 42.3654 152.836 42.0953C160.397 41.8253 178.149 42.7704 180.48 42.7704C182.811 42.7704 191.953 46.9863 193.12 56.0025C194.288 65.0187 193.12 84.2219 193.12 84.2219H133.528C133.528 84.2219 132.718 59.513 133.528 54.5173C134.338 49.5215 138.929 47.2261 142.304 48.4413Z" fill="#352A24"/>
<path d="M146.4 129.319C146.4 129.319 144.599 131.791 143.564 134.156H147.66L146.4 129.319Z" fill="#EDF5F7"/>
<path d="M173.068 129.679C173.068 129.679 176.645 133.73 177.725 135.53H171.784V130.939L173.068 129.679Z" fill="#EDF5F7"/>
<path d="M173.068 144.891H146.4V112.306H173.068V144.891Z" fill="#FFD2A9"/>
<path d="M145.119 135.26L130.018 145.657L146.349 224.644H193.639L185.916 140.256L174.754 135.285L164.583 140.256L145.119 135.26Z" fill="#239BAF"/>
<path d="M146.4 116.263C146.4 116.263 152.389 132.289 173.068 128.599V116.263H146.4Z" fill="#DDA983"/>
<path d="M165.798 122.838H163.233C149.512 122.838 138.389 111.715 138.389 97.9941V60.4128C138.389 57.1567 141.029 54.5173 144.285 54.5173H184.881C188.137 54.5173 190.777 57.1567 190.777 60.4128V97.8591C190.777 111.654 179.594 122.838 165.798 122.838Z" fill="#FFD2A9"/>
<path d="M190.777 84.627C190.777 84.627 191.722 81.6565 194.018 82.8717C196.313 84.0869 196.313 94.7535 190.777 96.5088V84.627Z" fill="#FFD2A9"/>
<path d="M148.516 148.492L155.132 154.238L159.734 148.492L157.967 145.927L145.699 141.673L148.516 148.492Z" fill="#1D8B96"/>
<path d="M190.777 90.2979C190.777 90.2979 191.548 87.3274 193.12 87.3274" stroke="#E0A282" stroke-width="2.66667" stroke-miterlimit="10"/>
<path d="M171.064 83.4118C171.064 83.4118 175.79 93.2683 174.98 95.4287C174.169 97.589 171.064 98.6692 171.064 98.6692" stroke="#E0A282" stroke-width="2.66667" stroke-miterlimit="10"/>
<path d="M177.725 147.543C177.725 147.543 183.486 167.48 184.566 173.851C185.646 180.222 186.322 193.049 186.592 197.64C186.862 202.23 187.132 224.644 187.132 224.644H191.26L188.168 163.074L181.107 143.721L177.725 147.543Z" fill="#1D8B96"/>
<path d="M184.09 85.6974C184.09 87.6914 182.474 89.3079 180.48 89.3079C178.486 89.3079 176.87 87.6914 176.87 85.6974C176.87 83.7034 178.486 82.0869 180.48 82.0869C182.474 82.0869 184.09 83.7034 184.09 85.6974Z" fill="#352A24"/>
<path d="M160.056 85.6974C160.056 87.6914 158.44 89.3079 156.446 89.3079C154.452 89.3079 152.836 87.6914 152.836 85.6974C152.836 83.7034 154.452 82.0869 156.446 82.0869C158.44 82.0869 160.056 83.7034 160.056 85.6974Z" fill="#352A24"/>
<path d="M145.699 141.673C145.699 141.673 152.971 158.619 154.457 161.319C155.942 164.019 161.099 189.133 161.828 195.209C162.558 201.285 166.339 224.644 166.339 224.644H159.734L141.225 145.656L145.699 141.673Z" fill="#1D8B96"/>
<path d="M176.195 76.7957L182.946 74.0953" stroke="#352A24" stroke-width="2.66667" stroke-miterlimit="10"/>
<path d="M158.681 149.807L163.638 156.728L166.338 189.128L171.064 189.759L165.959 153.623L159.734 146.873L158.681 149.807Z" fill="#1D8B96"/>
<path d="M178.434 150.025L172.324 144.981L174.189 143.721L178.947 147.422L178.434 150.025Z" fill="#1D8B96"/>
<path d="M160.056 76.1206C160.056 76.1206 152.431 74.2303 150.136 74.0953" stroke="#352A24" stroke-width="2.66667" stroke-miterlimit="10"/>
<path d="M171.064 107.446C171.064 107.446 165.528 109.336 162.288 105.42" stroke="#E0A282" stroke-width="2.66667" stroke-miterlimit="10"/>
<path d="M169.309 60.7282C169.309 60.7282 176.124 57.3527 180.48 58.973C184.836 60.5932 188.887 70.1797 190.777 71.6649H191.949V58.5328C191.949 58.5328 190.102 53.3021 185.781 52.762C181.461 52.2219 139.604 52.762 139.604 52.762C139.604 52.762 136.419 56.4076 136.594 59.7831C136.769 63.1586 136.594 90.2979 136.594 90.2979C136.594 90.2979 141.089 89.1982 141.9 85.6974C142.71 82.1966 142.035 72.5053 142.44 71.41C142.845 70.3147 149.119 59.108 155.096 58.8379C161.073 58.5679 169.309 60.7282 169.309 60.7282Z" fill="#352A24"/>
<path d="M157.967 145.927L164.583 156.728L173.069 155.918V143.361L164.583 140.256L157.967 145.927Z" fill="#2A6868"/>
<path d="M173.068 155.918C173.068 155.918 181.461 179.952 182.541 193.184H168.229C168.229 193.184 166.068 161.184 164.583 156.728L173.068 155.918Z" fill="#2A6868"/>
<path d="M146.4 130.939C146.4 130.939 157.427 140.661 164.583 139.175C164.583 139.175 169.942 136.745 173.068 132.154C173.068 132.154 174.98 134.72 177.005 138.365C179.03 142.011 178.463 147.952 178.463 147.952L164.583 140.256C164.583 140.256 156.482 149.167 155.267 152.408C155.267 152.408 145.14 142.686 144.195 138.23C144.195 138.23 145.365 131.074 146.4 130.939Z" fill="#2FA6C1"/>
<path d="M145.346 132.965H144.195L142.979 135.26C142.979 135.26 125.427 141.741 111.25 153.488L121.646 224.644H164.583C164.583 224.644 158.822 173.876 151.081 157.493C143.339 141.111 145.346 132.965 145.346 132.965Z" fill="#EDF5F7"/>
<path d="M174.189 133.761C174.189 133.761 184.431 160.779 186.186 176.441C187.942 192.104 189.022 224.644 189.022 224.644H208.33C208.33 224.644 201.309 147.007 198.203 143.631C195.098 140.255 176.87 134.585 176.87 134.585L174.189 133.761Z" fill="#EDF5F7"/>
<path d="M112.581 152.408C112.581 152.408 106.119 156.188 105.174 167.26C104.229 178.332 115.706 224.644 115.706 224.644H148.516C148.516 224.644 138.254 174.686 132.988 164.424C127.723 154.163 120.664 151.732 112.581 152.408Z" fill="#EDF5F7"/>
<path d="M143.067 199.842C139.779 185.69 135.715 169.737 132.988 164.425C128.412 155.508 122.483 152.504 115.705 152.313" stroke="#CEDADD" stroke-width="2.66667" stroke-miterlimit="10"/>
<path d="M138.389 84.0869C138.389 84.0869 135.688 80.3063 132.448 83.1417C129.207 85.9772 132.718 97.0489 138.389 96.5088V84.0869Z" fill="#FFD2A9"/>
<path d="M134.799 87.3274C134.799 87.3274 137.849 88.0025 138.389 90.2979" stroke="#E0A282" stroke-width="2.66667" stroke-miterlimit="10"/>
<path d="M197.005 142.66C197.005 142.66 201.984 145.926 204.279 155.918C206.575 165.91 214.271 185.083 216.026 199.395C217.781 213.707 215.756 223.159 210.22 224.644H197.528L197.005 142.66Z" fill="#EDF5F7"/>
<path d="M157.967 187.648C157.967 187.648 149.835 191.011 146.4 195.209C142.966 199.407 142.575 199.8 142.575 199.8L156.09 200.947L157.967 187.648Z" fill="#FFD2A9"/>
<path d="M216.026 199.395C214.271 185.083 206.575 165.91 204.279 155.918C201.984 145.927 197.005 142.66 197.005 142.66C197.005 142.66 207.79 169.96 210.49 186.298C213.191 202.635 216.161 212.762 210.22 224.644C215.756 223.159 217.781 213.707 216.026 199.395Z" fill="#F5FBFC"/>
<path d="M186.457 192.509C186.457 192.509 192.938 183.462 196.043 180.627C199.149 177.792 207.115 175.631 209.68 176.171C212.246 176.711 212.759 179.029 211.49 179.761C211.49 179.761 213.911 179.727 214.631 182.067C215.351 184.408 211.48 185.038 211.48 185.038C211.48 185.038 215.621 185.038 215.441 187.648C215.261 190.258 213.101 190.348 213.101 190.348C213.101 190.348 214.271 192.936 211.48 194.298C208.69 195.659 205.449 195.659 204.009 197.64L185.917 192.779L186.457 192.509Z" fill="#FFD2A9"/>
<path d="M196.448 188.473C196.448 188.473 199.329 183.598 203.469 181.887C207.61 180.177 211.49 179.76 211.49 179.76" stroke="#E0A282" stroke-width="2.66667" stroke-miterlimit="10"/>
<path d="M209.68 201.96C209.68 201.96 206.98 196.154 200.094 193.859C193.208 191.564 157.157 185.623 157.157 185.623C157.157 185.623 153.646 208.306 153.646 208.711C153.646 209.116 202.524 223.159 202.524 223.159L209.68 201.96Z" fill="#EDF5F7"/>
<path d="M200.139 190.078C200.139 190.078 202.929 187.198 205.54 186.118C208.15 185.038 211.48 185.038 211.48 185.038" stroke="#E0A282" stroke-width="2.66667" stroke-miterlimit="10"/>
<path d="M202.749 194.298C202.749 194.298 204.416 192.059 206.823 191.249C209.23 190.438 213.1 190.349 213.1 190.349" stroke="#E0A282" stroke-width="2.66667" stroke-miterlimit="10"/>
<path d="M142.98 135.26C142.98 135.26 137.714 150.848 138.389 152.303C139.064 153.758 146.4 160.644 146.4 160.644" stroke="#CEDADD" stroke-width="2.66667" stroke-miterlimit="10"/>
<path d="M149.191 157.943C149.191 157.943 140.82 165.64 139.469 166.99C138.119 168.34 140.279 170.635 142.575 173.201C144.87 175.766 152.296 186.198 153.647 189.759" stroke="#CEDADD" stroke-width="2.66667" stroke-miterlimit="10"/>
<path d="M176.87 134.585C176.87 134.585 187.807 146.197 189.427 148.492C191.047 150.787 188.077 156.728 188.077 156.728" stroke="#CEDADD" stroke-width="2.66667" stroke-miterlimit="10"/>
<path d="M181.106 154.323C181.106 154.323 184.026 153.893 185.376 154.973C186.727 156.053 192.185 158.393 194.647 158.754C195.908 159.113 194.738 172.075 194.647 175.046C194.558 178.016 194.038 182.738 194.038 182.738" stroke="#CEDADD" stroke-width="2.66667" stroke-miterlimit="10"/>
<path d="M142.575 199.8C142.575 199.8 134.339 197.64 129.208 199.8C124.077 201.96 121.106 207.901 121.106 207.901" stroke="#CEDADD" stroke-width="2.66667" stroke-miterlimit="10"/>
<path d="M164.268 109.606C164.268 109.606 167.463 109.696 167.643 110.326C167.823 110.956 164.582 111.136 164.268 109.606Z" fill="#E0A086"/>
<path d="M148.129 224.644H146.827C147.261 224.66 147.695 224.663 148.129 224.644Z" fill="#D1DDE0"/>
<path d="M148.129 224.644C148.378 225.831 148.516 224.644 148.516 224.644H148.129Z" fill="#D1DDE0"/>
<path d="M126.288 211.989C125.099 209.52 125.093 206.633 126.259 204.152C127.099 202.368 128.006 200.733 128.758 200.079C127.649 200.646 125.442 201.918 123.378 204.106C122.308 199.825 116.459 175.333 113.291 162.051C112.757 159.815 113.237 157.467 114.577 155.6C122.237 144.927 140.665 136.188 140.739 136.153C135.566 138.3 122.371 144.272 111.249 153.488L111.238 153.452C109.292 155.22 105.844 159.402 105.173 167.26C104.228 178.332 115.705 224.644 115.705 224.644H146.826C144.019 224.536 141.25 223.743 139.051 223.159C132.44 221.401 128.923 217.46 126.288 211.989Z" fill="#D1DDE0"/>
<path d="M129.208 199.8C129.066 199.843 128.915 199.943 128.758 200.079C129.469 199.716 129.731 199.639 129.208 199.8Z" fill="#D1DDE0"/>
<path d="M164.583 156.728C164.583 156.728 169.852 154.703 173.068 155.918L164.583 156.728Z" fill="#225453"/>
<path d="M169.387 155.589C169.387 155.589 169.397 160.644 170.477 161.589C171.557 162.534 171.401 157.622 169.387 155.589Z" fill="#225453"/>
<path d="M183.208 84.2219C183.208 84.7906 182.747 85.2513 182.178 85.2513C181.61 85.2513 181.148 84.7906 181.148 84.2219C181.148 83.6532 181.61 83.1925 182.178 83.1925C182.747 83.1925 183.208 83.6532 183.208 84.2219Z" fill="white"/>
<path d="M159.174 84.2219C159.174 84.7906 158.713 85.2513 158.144 85.2513C157.575 85.2513 157.114 84.7906 157.114 84.2219C157.114 83.6532 157.575 83.1925 158.144 83.1925C158.713 83.1925 159.174 83.6532 159.174 84.2219Z" fill="white"/>
<path d="M227.933 94.411C227.933 94.8582 227.571 95.2212 227.123 95.2212C226.676 95.2212 226.313 94.8582 226.313 94.411C226.313 93.9633 226.676 93.6009 227.123 93.6009C227.571 93.6009 227.933 93.9633 227.933 94.411Z" fill="white"/>
<path d="M247.332 94.411C247.332 94.8582 246.969 95.2212 246.522 95.2212C246.074 95.2212 245.711 94.8582 245.711 94.411C245.711 93.9633 246.074 93.6009 246.522 93.6009C246.969 93.6009 247.332 93.9633 247.332 94.411Z" fill="white"/>
<path d="M98.6504 95.4912C98.6504 96.0502 98.3026 96.5038 97.8743 96.5038C97.4455 96.5038 97.0977 96.0502 97.0977 95.4912C97.0977 94.9317 97.4455 94.4785 97.8743 94.4785C98.3026 94.4785 98.6504 94.9317 98.6504 95.4912Z" fill="white"/>
<path d="M74.1445 95.4912C74.1445 96.0502 73.7967 96.5038 73.3684 96.5038C72.9396 96.5038 72.5918 96.0502 72.5918 95.4912C72.5918 94.9317 72.9396 94.4785 73.3684 94.4785C73.7967 94.4785 74.1445 94.9317 74.1445 95.4912Z" fill="white"/>
<defs>
<linearGradient id="paint0_linear_446_1349" x1="228.883" y1="10.2123" x2="225.253" y2="169.964" gradientUnits="userSpaceOnUse">
<stop stop-color="#4D88FD"/>
<stop offset="1" stop-color="#0BCED8"/>
</linearGradient>
<linearGradient id="paint1_linear_446_1349" x1="54.8726" y1="3.08516" x2="50.1549" y2="210.666" gradientUnits="userSpaceOnUse">
<stop stop-color="#4D88FD"/>
<stop offset="1" stop-color="#0BCED8"/>
</linearGradient>
<linearGradient id="paint2_linear_446_1349" x1="136.419" y1="-0.19782" x2="132.531" y2="170.889" gradientUnits="userSpaceOnUse">
<stop stop-color="#4D88FD"/>
<stop offset="1" stop-color="#0BCED8"/>
</linearGradient>
</defs>
</svg>
