<svg width="320" height="226" viewBox="0 0 320 226" fill="none" xmlns="http://www.w3.org/2000/svg">
<g clip-path="url(#clip0_446_1952)">
<path d="M300 0H20C8.9543 0 0 8.9543 0 20V206C0 217.046 8.9543 226 20 226H300C311.046 226 320 217.046 320 206V20C320 8.9543 311.046 0 300 0Z" fill="#34A853" fill-opacity="0.6"/>
<path d="M226.791 68.2132V211.211C226.79 214.676 225.413 218 222.962 220.451C220.512 222.902 217.188 224.279 213.723 224.281H116.576V68.2132C116.579 64.7485 117.956 61.4264 120.406 58.9764C122.855 56.5264 126.177 55.1487 129.642 55.1459H239.857C236.392 55.1478 233.07 56.5251 230.62 58.9754C228.17 61.4256 226.793 64.7482 226.791 68.2132Z" fill="#F2F9FF"/>
<path d="M217.04 129.42H152.983V132.023H217.04V129.42Z" fill="#B8D1E6"/>
<path d="M147.984 129.42H126.326V132.023H147.984V129.42Z" fill="#B8D1E6"/>
<path d="M217.04 135.925H126.326V138.528H217.04V135.925Z" fill="#B8D1E6"/>
<path d="M171.683 142.432H126.326V145.035H171.683V142.432Z" fill="#B8D1E6"/>
<path d="M141.409 84.0769H128.146V124.988H141.409V84.0769Z" fill="#FF6D3B"/>
<path d="M159.412 105.972H146.15V124.988H159.412V105.972Z" fill="#B8D1E6"/>
<path d="M177.421 90.6796H164.159V124.988H177.421V90.6796Z" fill="#2A445E"/>
<path d="M195.425 117.443H182.163V124.988H195.425V117.443Z" fill="#21D8DE"/>
<path d="M211.405 85.142H204.808V86.5458H211.405V85.142Z" fill="#B8D1E6"/>
<path d="M215.22 85.142H212.452V86.5458H215.22V85.142Z" fill="#B8D1E6"/>
<path d="M215.22 96.3976H204.808V97.8015H215.22V96.3976Z" fill="#B8D1E6"/>
<path d="M215.22 102.027H213.576V103.431H215.22V102.027Z" fill="#B8D1E6"/>
<path d="M212.697 102.027H204.808V103.431H212.697V102.027Z" fill="#B8D1E6"/>
<path d="M206.738 90.7699H204.808V92.1723H206.738V90.7699Z" fill="#B8D1E6"/>
<path d="M211.01 90.7699H208.078V92.1723H211.01V90.7699Z" fill="#B8D1E6"/>
<path d="M215.22 90.7699H212.289V92.1723H215.22V90.7699Z" fill="#B8D1E6"/>
<path d="M202.868 85.8446C202.868 86.1939 202.764 86.5352 202.57 86.8254C202.376 87.1157 202.1 87.3419 201.777 87.4754C201.454 87.6089 201.099 87.6438 200.757 87.5756C200.414 87.5074 200.1 87.3392 199.853 87.0922C199.606 86.8453 199.438 86.5307 199.369 86.1882C199.301 85.8457 199.336 85.4906 199.47 85.1679C199.603 84.8452 199.829 84.5693 200.12 84.3751C200.41 84.1809 200.751 84.0771 201.1 84.0769C201.333 84.0765 201.563 84.122 201.777 84.2107C201.992 84.2994 202.187 84.4296 202.351 84.5938C202.515 84.758 202.646 84.953 202.734 85.1677C202.823 85.3823 202.869 85.6124 202.868 85.8446Z" fill="#2A445E"/>
<path d="M202.868 91.4724C202.868 91.8216 202.764 92.163 202.57 92.4532C202.376 92.7435 202.1 92.9697 201.777 93.1032C201.454 93.2367 201.099 93.2716 200.757 93.2034C200.414 93.1352 200.1 92.967 199.853 92.72C199.606 92.4731 199.438 92.1585 199.369 91.816C199.301 91.4734 199.336 91.1184 199.47 90.7957C199.603 90.473 199.829 90.1971 200.12 90.0029C200.41 89.8087 200.751 89.7049 201.1 89.7047C201.333 89.7041 201.563 89.7495 201.778 89.8381C201.992 89.9267 202.187 90.057 202.352 90.2212C202.516 90.3855 202.646 90.5806 202.735 90.7953C202.823 91.01 202.869 91.2401 202.868 91.4724Z" fill="#B8D1E6"/>
<path d="M202.868 97.1003C202.868 97.4495 202.764 97.7906 202.569 98.0807C202.375 98.3708 202.099 98.5968 201.776 98.7301C201.453 98.8634 201.098 98.898 200.756 98.8296C200.414 98.7613 200.099 98.593 199.852 98.346C199.606 98.099 199.437 97.7844 199.369 97.4419C199.301 97.0994 199.336 96.7444 199.47 96.4218C199.603 96.0992 199.83 95.8234 200.12 95.6293C200.41 95.4351 200.751 95.3314 201.1 95.3311C201.333 95.3306 201.563 95.376 201.778 95.4647C201.993 95.5534 202.188 95.6838 202.352 95.8482C202.516 96.0126 202.647 96.2078 202.735 96.4227C202.824 96.6376 202.869 96.8679 202.868 97.1003Z" fill="#FF6D3B"/>
<path d="M202.868 102.727C202.868 103.076 202.765 103.418 202.571 103.708C202.377 103.998 202.101 104.225 201.778 104.359C201.455 104.492 201.1 104.527 200.758 104.459C200.415 104.391 200.1 104.223 199.853 103.976C199.606 103.729 199.438 103.415 199.37 103.072C199.301 102.73 199.336 102.374 199.47 102.052C199.603 101.729 199.829 101.453 200.119 101.259C200.41 101.064 200.751 100.961 201.1 100.96C201.333 100.96 201.563 101.005 201.777 101.094C201.992 101.182 202.187 101.312 202.351 101.476C202.515 101.641 202.646 101.836 202.734 102.05C202.823 102.265 202.869 102.495 202.868 102.727Z" fill="#21D8DE"/>
<path d="M169.328 152.765H126.326V171.205H169.328V152.765Z" fill="#B8D1E6"/>
<path d="M217.04 152.765H174.038V171.205H217.04V152.765Z" fill="#B8D1E6"/>
<path d="M217.04 179.364H126.326V181.968H217.04V179.364Z" fill="#50667E"/>
<path d="M217.04 185.872H126.326V188.475H217.04V185.872Z" fill="#B8D1E6"/>
<path d="M171.686 192.377H126.326V194.982H171.686V192.377Z" fill="#B8D1E6"/>
<path d="M239.858 55.1459C243.323 55.1476 246.647 56.5247 249.097 58.9748C251.548 61.4249 252.927 64.7476 252.929 68.2132H226.792C226.793 64.7482 228.171 61.4256 230.62 58.9754C233.07 56.5251 236.393 55.1478 239.858 55.1459Z" fill="#B8D1E6"/>
<path d="M116.577 224.281V211.211C116.576 214.677 115.199 218.001 112.748 220.452C110.297 222.903 106.973 224.28 103.507 224.281H116.577Z" fill="#CEE2F2"/>
<path d="M103.507 224.281C100.041 224.279 96.718 222.902 94.2677 220.451C91.8174 218 90.4405 214.676 90.4395 211.211H200.653C200.654 214.677 202.031 218.001 204.482 220.452C206.933 222.903 210.257 224.28 213.723 224.281H103.507Z" fill="#B8D1E6"/>
<path d="M68.6206 83.2106L65.4802 83.2148L61.8218 83.2063L60.4058 83.208L60.41 75.8803L68.6206 75.8786V83.2106Z" fill="#50667E"/>
<path d="M56.6934 72.1255H31.4267C29.4587 72.1255 27.5713 72.9073 26.1797 74.2989C24.7881 75.6904 24.0063 77.5779 24.0063 79.5459C24.0063 81.5139 24.7881 83.4013 26.1797 84.7928C27.5713 86.1844 29.4587 86.9662 31.4267 86.9662L56.6934 86.969L56.6934 72.1255Z" fill="#50667E"/>
<g style="mix-blend-mode:screen">
<path d="M56.6932 75.6147V73.5604H31.4236C29.8361 73.5626 28.3143 74.1941 27.1916 75.3165C26.069 76.4388 25.4371 77.9605 25.4346 79.548C25.4373 79.8201 25.5461 80.0803 25.738 80.2733C25.8817 80.4163 26.0645 80.5135 26.2634 80.5528C26.4623 80.5921 26.6683 80.5718 26.8556 80.4942C27.043 80.4167 27.2032 80.2855 27.3161 80.1171C27.429 79.9487 27.4896 79.7507 27.4902 79.548C27.4914 78.5056 27.9058 77.5062 28.6426 76.7689C29.3794 76.0316 30.3785 75.6165 31.4209 75.6146L56.6932 75.6147Z" fill="#50667E"/>
</g>
<path d="M56.6934 86.969V72.1255H57.8079C58.4967 72.1248 59.1575 72.3975 59.6453 72.8837C60.1332 73.3699 60.408 74.0298 60.4096 74.7186L60.4054 84.3731C60.4061 84.714 60.3395 85.0517 60.2093 85.3668C60.0792 85.6819 59.8881 85.9682 59.647 86.2093C59.406 86.4504 59.1197 86.6414 58.8046 86.7716C58.4894 86.9017 58.1517 86.9683 57.8108 86.9676L56.6934 86.969Z" fill="#2A445E"/>
<path d="M124.958 103.269C129.649 98.5754 132.843 92.5967 134.136 86.0885C135.429 79.5803 134.763 72.8349 132.222 66.7051C129.682 60.5753 125.381 55.3365 119.863 51.6511C114.345 47.9656 107.859 45.999 101.223 46C94.5878 46.001 88.1017 47.9694 82.585 51.6565C77.0683 55.3436 72.7688 60.5836 70.2301 66.7142C67.6913 72.8447 67.0274 79.5903 68.3223 86.0981C69.6172 92.6059 72.8126 98.5837 77.5047 103.275C80.6209 106.391 84.3202 108.862 88.3916 110.548C92.4629 112.234 96.8265 113.102 101.233 113.101C105.64 113.1 110.003 112.232 114.074 110.545C118.145 108.858 121.843 106.385 124.958 103.269Z" fill="#2A445E"/>
<path d="M80.0724 100.704C75.888 96.5191 73.0384 91.1876 71.884 85.3835C70.7295 79.5794 71.3221 73.5634 73.5868 68.0961C75.8515 62.6288 79.6865 57.9558 84.607 54.6681C89.5275 51.3803 95.3124 49.6255 101.23 49.6255C107.148 49.6255 112.933 51.3803 117.853 54.6681C122.774 57.9558 126.609 62.6288 128.874 68.0961C131.138 73.5634 131.731 79.5794 130.576 85.3835C129.422 91.1876 126.572 96.5191 122.388 100.704C116.776 106.315 109.166 109.467 101.23 109.467C93.2945 109.467 85.6839 106.315 80.0724 100.704Z" fill="#50667E"/>
<path d="M129.304 79.5452C129.304 73.9923 127.658 68.564 124.573 63.9469C121.488 59.3298 117.103 55.7313 111.972 53.6063C106.842 51.4814 101.197 50.9255 95.7508 52.009C90.3047 53.0925 85.3021 55.7667 81.3758 59.6934C77.4495 63.6201 74.7758 68.623 73.6929 74.0692C72.61 79.5155 73.1664 85.1606 75.2919 90.2907C77.4173 95.4207 81.0164 99.8052 85.6338 102.89C90.2512 105.974 95.6796 107.62 101.233 107.62C108.678 107.619 115.818 104.661 121.082 99.396C126.347 94.131 129.304 86.9905 129.304 79.5452Z" fill="#F2F9FF"/>
<path d="M121.351 79.5465C121.35 75.5675 120.17 71.6781 117.959 68.37C115.748 65.0619 112.606 62.4837 108.929 60.9614C105.253 59.4392 101.208 59.0412 97.3056 59.8178C93.4032 60.5944 89.8186 62.5108 87.0053 65.3245C84.192 68.1383 82.2762 71.7231 81.5001 75.6256C80.7241 79.5282 81.1227 83.5732 82.6455 87.2492C84.1683 90.9252 86.747 94.0672 90.0554 96.2777C93.3639 98.4882 97.2535 99.6681 101.232 99.668C106.568 99.6661 111.685 97.5454 115.457 93.7722C119.23 89.999 121.35 84.8822 121.351 79.5465Z" fill="#21D8DE"/>
<path d="M101.233 89.8612C99.1923 89.8619 97.1975 89.2575 95.5007 88.1245C93.8038 86.9914 92.4811 85.3806 91.6998 83.4957C90.9185 81.6109 90.7137 79.5366 91.1114 77.5354C91.509 75.5341 92.4913 73.6957 93.9338 72.2528C95.3764 70.8098 97.2145 69.827 99.2156 69.4288C101.217 69.0305 103.291 69.2347 105.176 70.0154C107.061 70.7962 108.672 72.1184 109.806 73.8149C110.94 75.5115 111.545 77.5061 111.544 79.5464C111.545 80.9009 111.279 82.2423 110.761 83.4938C110.243 84.7453 109.483 85.8825 108.526 86.8405C107.568 87.7984 106.431 88.5582 105.18 89.0765C103.928 89.5948 102.587 89.8614 101.233 89.8612Z" fill="#2A445E"/>
<g style="mix-blend-mode:screen">
<g style="mix-blend-mode:screen">
<path d="M92.5924 62.0605C94.5167 63.9836 94.0934 67.5262 91.6513 69.9697C89.2063 72.4133 85.6651 72.8351 83.7435 70.9066C81.8177 68.9864 82.2382 65.4438 84.6817 63.0002C87.1267 60.5566 90.6708 60.1333 92.5924 62.0605Z" fill="#CEE2F2"/>
</g>
<g style="mix-blend-mode:screen">
<path d="M99.3998 73.5575C100.306 74.4604 100.107 76.1253 98.9582 77.2737C97.8098 78.425 96.1451 78.6239 95.2378 77.7153C94.3336 76.8109 94.5311 75.1475 95.6809 73.9977C96.8335 72.8478 98.4984 72.6503 99.3998 73.5575Z" fill="#CEE2F2"/>
</g>
</g>
<path d="M61.1207 167.338H46.4296C40.2356 168.915 34.7134 172.443 30.6795 177.401C26.6455 182.359 24.314 188.483 24.0295 194.868C23.7451 201.253 25.5228 207.561 29.0999 212.857C32.677 218.154 37.8636 222.16 43.8929 224.281H63.656C69.6851 222.16 74.8716 218.154 78.4487 212.858C82.0259 207.561 83.8037 201.254 83.5194 194.869C83.2351 188.483 80.9038 182.359 76.8701 177.401C72.8364 172.443 67.3145 168.915 61.1207 167.338Z" fill="#E1EFFA"/>
<path d="M61.7145 132.709C62.2404 132.709 62.7448 132.5 63.1167 132.128C63.4885 131.756 63.6975 131.252 63.6975 130.726C63.6975 130.2 63.4885 129.695 63.1167 129.324C62.7448 128.952 62.2404 128.743 61.7145 128.743H45.8355C45.3096 128.743 44.8052 128.952 44.4333 129.324C44.0615 129.695 43.8525 130.2 43.8525 130.726C43.8525 131.252 44.0615 131.756 44.4333 132.128C44.8052 132.5 45.3096 132.709 45.8355 132.709H61.7145Z" fill="#F2F9FF"/>
<path d="M81.7489 196.19C81.7435 201.928 79.9763 207.527 76.6864 212.229C73.3964 216.931 68.7423 220.509 63.3529 222.481H44.2021C38.8107 220.512 34.1545 216.935 30.864 212.232C27.5736 207.529 25.8079 201.929 25.8062 196.19C25.8062 195.597 25.8245 194.986 25.8781 194.411H31.9376C32.4798 193.613 33.209 192.959 34.0616 192.508C34.9141 192.056 35.8643 191.82 36.829 191.82C37.7938 191.82 38.7439 192.056 39.5965 192.508C40.4491 192.959 41.1783 193.613 41.7204 194.411H67.759C68.4328 193.954 69.2283 193.709 70.0425 193.709C70.8566 193.709 71.6521 193.954 72.326 194.411H81.6939C81.7306 194.986 81.7489 195.597 81.7489 196.19Z" fill="#FF6D3B"/>
<path d="M61.1207 132.709H46.4297V167.338H61.1207V132.709Z" fill="#CEE2F2"/>
<path d="M51.9572 201.191C51.9574 202.18 51.6644 203.146 51.1153 203.968C50.5663 204.79 49.7858 205.431 48.8726 205.809C47.9594 206.187 46.9545 206.287 45.985 206.094C45.0155 205.901 44.1249 205.425 43.4258 204.726C42.7267 204.027 42.2506 203.137 42.0576 202.168C41.8646 201.198 41.9635 200.193 42.3416 199.28C42.7198 198.367 43.3603 197.586 44.1821 197.037C45.0039 196.487 45.9702 196.194 46.9587 196.194C48.2841 196.194 49.5554 196.72 50.4928 197.657C51.4302 198.594 51.9569 199.866 51.9572 201.191Z" fill="#E1EFFA"/>
<path d="M46.4254 197.812C46.0274 197.592 45.5685 197.507 45.1181 197.57C44.6676 197.633 44.2499 197.842 43.9283 198.163C43.6066 198.485 43.3983 198.903 43.3349 199.353C43.2715 199.804 43.3564 200.262 43.5768 200.66C43.9748 200.881 44.4336 200.965 44.8839 200.902C45.3343 200.838 45.7518 200.63 46.0734 200.309C46.395 199.987 46.6033 199.57 46.6668 199.119C46.7303 198.669 46.6455 198.21 46.4254 197.812Z" fill="white"/>
<path d="M65.5915 199.769C65.5917 200.323 65.4275 200.866 65.1197 201.327C64.8118 201.788 64.3741 202.147 63.8619 202.36C63.3496 202.572 62.7859 202.628 62.2421 202.52C61.6982 202.412 61.1986 202.145 60.8064 201.753C60.4142 201.361 60.1471 200.861 60.0388 200.318C59.9306 199.774 59.986 199.21 60.1981 198.698C60.4103 198.185 60.7696 197.748 61.2306 197.439C61.6916 197.131 62.2337 196.967 62.7882 196.967C63.5314 196.967 64.2442 197.262 64.7699 197.788C65.2956 198.313 65.5911 199.026 65.5915 199.769Z" fill="#E1EFFA"/>
<path d="M62.4907 197.873C62.3717 197.656 62.1875 197.482 61.9643 197.376C61.7411 197.27 61.4901 197.237 61.2469 197.281C61.0038 197.326 60.7808 197.446 60.6095 197.624C60.4382 197.802 60.3273 198.029 60.2925 198.274C60.2577 198.519 60.3008 198.768 60.4156 198.987C60.5305 199.206 60.7113 199.383 60.9325 199.494C61.1536 199.604 61.4039 199.642 61.6479 199.602C61.8918 199.563 62.1171 199.447 62.2918 199.272C62.4982 199.109 62.6339 198.873 62.671 198.612C62.708 198.352 62.6435 198.087 62.4907 197.873Z" fill="white"/>
<path d="M58.1919 210.067C58.1921 210.71 58.0016 211.339 57.6442 211.875C57.2869 212.41 56.7789 212.827 56.1844 213.073C55.59 213.32 54.9358 213.384 54.3046 213.259C53.6734 213.134 53.0936 212.824 52.6385 212.369C52.1833 211.914 51.8733 211.334 51.7477 210.703C51.622 210.072 51.6864 209.418 51.9326 208.823C52.1788 208.229 52.5957 207.721 53.1308 207.363C53.6658 207.005 54.2949 206.815 54.9384 206.815C55.3656 206.814 55.7887 206.898 56.1835 207.061C56.5783 207.225 56.937 207.464 57.2392 207.766C57.5414 208.068 57.781 208.427 57.9445 208.822C58.108 209.216 58.192 209.639 58.1919 210.067Z" fill="#E1EFFA"/>
<path d="M54.5914 207.866C54.4532 207.615 54.2395 207.414 53.9806 207.291C53.7217 207.168 53.4307 207.13 53.1488 207.181C52.8669 207.233 52.6084 207.372 52.4099 207.579C52.2114 207.785 52.083 208.049 52.0428 208.333C52.0026 208.617 52.0527 208.906 52.186 209.16C52.3193 209.413 52.529 209.619 52.7854 209.747C53.0419 209.875 53.3321 209.919 53.6149 209.873C53.8978 209.826 54.159 209.692 54.3615 209.49C54.6011 209.3 54.7587 209.026 54.8015 208.724C54.8443 208.421 54.7691 208.114 54.5914 207.866Z" fill="white"/>
<path d="M65.586 208.4C65.586 208.729 65.4884 209.051 65.3056 209.325C65.1228 209.598 64.8631 209.811 64.5591 209.937C64.2552 210.063 63.9207 210.096 63.5981 210.032C63.2754 209.968 62.979 209.809 62.7464 209.577C62.5138 209.344 62.3554 209.048 62.2912 208.725C62.2271 208.402 62.26 208.068 62.3859 207.764C62.5118 207.46 62.725 207.2 62.9986 207.017C63.2721 206.835 63.5937 206.737 63.9227 206.737C64.1412 206.737 64.3575 206.78 64.5593 206.864C64.7611 206.947 64.9445 207.07 65.099 207.224C65.2534 207.379 65.376 207.562 65.4595 207.764C65.5431 207.966 65.5861 208.182 65.586 208.4Z" fill="#E1EFFA"/>
<path d="M63.7452 207.275C63.6745 207.146 63.5652 207.043 63.4328 206.98C63.3003 206.918 63.1515 206.898 63.0073 206.924C62.8632 206.951 62.731 207.022 62.6295 207.128C62.528 207.234 62.4624 207.369 62.4419 207.514C62.4214 207.659 62.4471 207.807 62.5154 207.936C62.5837 208.066 62.691 208.171 62.8222 208.236C62.9535 208.302 63.1019 208.324 63.2466 208.3C63.3912 208.277 63.5247 208.208 63.6281 208.104C63.7508 208.008 63.8314 207.867 63.8532 207.713C63.875 207.558 63.8363 207.401 63.7452 207.275Z" fill="white"/>
<path d="M51.9515 218.103C51.9518 218.425 51.8565 218.74 51.6778 219.008C51.4991 219.276 51.2449 219.485 50.9474 219.608C50.6499 219.731 50.3225 219.764 50.0066 219.701C49.6907 219.638 49.4005 219.484 49.1726 219.256C48.9448 219.028 48.7896 218.738 48.7267 218.422C48.6638 218.106 48.6959 217.779 48.8191 217.481C48.9423 217.184 49.151 216.929 49.4188 216.75C49.6866 216.572 50.0014 216.476 50.3235 216.476C50.5372 216.476 50.7489 216.518 50.9464 216.6C51.1438 216.681 51.3233 216.801 51.4745 216.952C51.6257 217.103 51.7456 217.283 51.8275 217.48C51.9093 217.677 51.9515 217.889 51.9515 218.103Z" fill="#E1EFFA"/>
<path d="M50.1502 217.001C50.0808 216.875 49.9736 216.775 49.8439 216.713C49.7141 216.652 49.5684 216.633 49.4273 216.659C49.2862 216.685 49.1569 216.755 49.0576 216.859C48.9584 216.963 48.8943 217.095 48.8743 217.237C48.8544 217.379 48.8796 217.524 48.9465 217.651C49.0134 217.778 49.1185 217.88 49.2469 217.944C49.3754 218.008 49.5207 218.03 49.6623 218.007C49.8039 217.984 49.9346 217.917 50.036 217.815C50.1563 217.72 50.2354 217.583 50.2567 217.431C50.278 217.279 50.2398 217.125 50.1502 217.001Z" fill="white"/>
<path d="M54.9456 124.856C54.9461 125.261 54.8262 125.658 54.6012 125.996C54.3761 126.333 54.056 126.596 53.6814 126.752C53.3068 126.908 52.8944 126.948 52.4965 126.87C52.0985 126.791 51.7329 126.596 51.4459 126.309C51.1588 126.022 50.9633 125.657 50.8839 125.259C50.8045 124.862 50.8449 124.449 50.9999 124.074C51.155 123.699 51.4177 123.379 51.7549 123.153C52.0921 122.928 52.4886 122.807 52.8943 122.807C53.4378 122.807 53.9592 123.023 54.3438 123.407C54.7285 123.791 54.9449 124.312 54.9456 124.856Z" fill="#FF6D3B"/>
<g style="mix-blend-mode:screen">
<path d="M52.6739 123.469C52.5101 123.38 52.3217 123.346 52.1371 123.373C51.9524 123.4 51.7815 123.486 51.65 123.618C51.5185 123.75 51.4334 123.922 51.4077 124.107C51.3819 124.291 51.4168 124.48 51.5071 124.643C51.6709 124.732 51.8593 124.766 52.0439 124.739C52.2285 124.712 52.3994 124.626 52.531 124.494C52.6625 124.361 52.7475 124.19 52.7733 124.005C52.7991 123.82 52.7642 123.632 52.6739 123.469Z" fill="#FF6D3B"/>
</g>
<path d="M60.9219 120.786C60.9219 121.281 60.7749 121.766 60.4996 122.178C60.2243 122.59 59.833 122.911 59.3751 123.1C58.9173 123.29 58.4135 123.34 57.9275 123.243C57.4414 123.146 56.995 122.908 56.6445 122.557C56.2941 122.207 56.0555 121.76 55.9588 121.274C55.8621 120.788 55.9117 120.285 56.1014 119.827C56.291 119.369 56.6121 118.977 57.0242 118.702C57.4362 118.427 57.9206 118.28 58.4162 118.28C58.7452 118.28 59.0711 118.345 59.3751 118.471C59.6791 118.596 59.9553 118.781 60.188 119.014C60.4207 119.246 60.6053 119.523 60.7312 119.827C60.8571 120.131 60.9219 120.456 60.9219 120.786Z" fill="#FF6D3B"/>
<g style="mix-blend-mode:screen">
<path d="M58.1468 119.091C57.9567 118.952 57.7199 118.893 57.4867 118.926C57.2535 118.959 57.0424 119.081 56.8983 119.268C56.8271 119.396 56.7931 119.542 56.8002 119.688C56.8073 119.835 56.8552 119.977 56.9384 120.098C57.0216 120.219 57.137 120.314 57.2714 120.373C57.4059 120.432 57.5541 120.453 57.6995 120.432C57.845 120.412 57.9818 120.351 58.0946 120.257C58.2074 120.163 58.2918 120.039 58.3382 119.9C58.3847 119.761 58.3914 119.611 58.3576 119.468C58.3238 119.325 58.2508 119.195 58.1468 119.091Z" fill="#FF6D3B"/>
</g>
<path d="M57.3893 112.96C57.3897 113.749 57.1559 114.521 56.7176 115.178C56.2792 115.835 55.656 116.347 54.9266 116.649C54.1972 116.952 53.3945 117.031 52.6201 116.877C51.8456 116.724 51.1341 116.344 50.5755 115.786C50.017 115.228 49.6365 114.516 49.4822 113.742C49.3279 112.968 49.4068 112.165 49.7087 111.435C50.0107 110.706 50.5222 110.082 51.1787 109.643C51.8351 109.204 52.6069 108.97 53.3965 108.97C53.9207 108.97 54.4398 109.073 54.9241 109.273C55.4085 109.473 55.8486 109.767 56.2194 110.138C56.5901 110.508 56.8843 110.948 57.085 111.432C57.2858 111.917 57.3891 112.436 57.3893 112.96Z" fill="#FF6D3B"/>
<g style="mix-blend-mode:screen">
<path d="M52.9673 110.259C52.6643 110.039 52.2873 109.945 51.9162 109.997C51.5451 110.05 51.2091 110.245 50.9795 110.541C50.866 110.746 50.8119 110.978 50.8232 111.212C50.8346 111.446 50.9109 111.672 51.0436 111.865C51.1763 112.057 51.3601 112.209 51.5745 112.303C51.7888 112.397 52.0251 112.43 52.2568 112.397C52.4885 112.364 52.7065 112.267 52.8862 112.117C53.0659 111.967 53.2002 111.77 53.274 111.548C53.3478 111.326 53.3582 111.088 53.304 110.86C53.2498 110.632 53.1332 110.424 52.9673 110.259Z" fill="#FF6D3B"/>
</g>
<path d="M261.396 107.58H240.62V149.144H261.396V107.58Z" fill="white"/>
<path d="M261.396 124.177V149.144C264.251 144.85 268.193 142.197 272.557 142.197C281.238 142.197 288.277 152.736 288.277 165.741C288.277 175.244 284.521 183.427 279.102 187.149H274.958V180.913H261.396V184.032H265.145V207.094C283.473 204.95 297.769 187.258 297.769 165.741C297.769 142.786 281.486 124.177 261.396 124.177Z" fill="#CEE2F2"/>
<path d="M256.62 184.55H245.4V192.865H256.62V184.55Z" fill="#20364D"/>
<path d="M274.958 187.149H240.62V190.265H274.958V187.149Z" fill="#2A445E"/>
<path d="M274.958 176.758H229.494V180.913H274.958V176.758Z" fill="#2A445E"/>
<path d="M258.387 149.144H243.634V162.082H258.387V149.144Z" fill="#CEE2F2"/>
<path d="M258.387 94.6454H243.634V107.58H258.387V94.6454Z" fill="#CEE2F2"/>
<path d="M259.32 91.3187H242.696V94.6455H259.32V91.3187Z" fill="#2A445E"/>
<path d="M254.127 170.394C254.127 170.667 254.073 170.937 253.968 171.189C253.863 171.441 253.709 171.67 253.516 171.862C253.325 172.057 253.096 172.211 252.844 172.316C252.592 172.421 252.322 172.474 252.049 172.473H249.971C249.697 172.473 249.427 172.42 249.174 172.315C248.922 172.211 248.692 172.058 248.499 171.865C248.305 171.672 248.152 171.442 248.047 171.19C247.942 170.938 247.888 170.667 247.888 170.394V162.082H254.127L254.127 170.394Z" fill="white"/>
<path d="M234.283 148.18L232.815 151.849L258.386 162.082L259.854 158.412L234.283 148.18Z" fill="#2A445E"/>
<path d="M232.814 151.854L243.55 162.083H258.388L232.814 151.854Z" fill="#20364D"/>
<path d="M234.706 165.135C234.519 165.335 234.295 165.495 234.045 165.606C233.796 165.718 233.527 165.779 233.254 165.786C232.981 165.793 232.709 165.745 232.454 165.646C232.2 165.547 231.967 165.398 231.771 165.209L230.267 163.775C230.067 163.589 229.907 163.364 229.796 163.114C229.685 162.865 229.625 162.595 229.619 162.322C229.612 162.049 229.658 161.777 229.756 161.521C229.854 161.266 230.001 161.032 230.189 160.834L235.925 154.818L240.435 159.115L234.706 165.135Z" fill="white"/>
<path d="M297.768 211.81H267.967V196.851C267.969 195.308 268.583 193.828 269.674 192.736C270.765 191.645 272.245 191.031 273.788 191.029H273.928C275.438 191.026 276.889 191.612 277.973 192.662L297.768 211.81Z" fill="#2A445E"/>
<path d="M219.78 215.968C219.398 215.968 219.02 216.043 218.667 216.189C218.315 216.335 217.994 216.549 217.724 216.819C217.454 217.089 217.24 217.409 217.094 217.762C216.947 218.115 216.872 218.493 216.872 218.875V224.281H227.26C227.262 223.949 227.395 223.632 227.63 223.398C227.865 223.164 228.183 223.032 228.514 223.032H298.755C299.085 223.034 299.402 223.166 299.636 223.4C299.87 223.634 300.002 223.95 300.005 224.281H310.39V218.875C310.39 218.104 310.084 217.366 309.54 216.821C308.995 216.276 308.257 215.969 307.486 215.968H219.78Z" fill="#2A445E"/>
<path d="M305.197 215.968H222.069V213.892C222.071 213.34 222.29 212.812 222.68 212.423C223.069 212.033 223.597 211.813 224.148 211.81H303.122C303.672 211.814 304.198 212.035 304.587 212.425C304.975 212.814 305.195 213.341 305.197 213.892V215.968Z" fill="#20364D"/>
<path d="M275.453 196.851C275.453 197.18 275.355 197.502 275.172 197.776C274.99 198.049 274.73 198.262 274.426 198.388C274.122 198.514 273.787 198.547 273.464 198.483C273.142 198.419 272.845 198.26 272.612 198.027C272.38 197.795 272.221 197.498 272.157 197.175C272.093 196.853 272.126 196.518 272.252 196.214C272.377 195.91 272.591 195.65 272.864 195.467C273.138 195.284 273.459 195.187 273.788 195.187C274.23 195.187 274.653 195.363 274.965 195.675C275.277 195.987 275.453 196.41 275.453 196.851Z" fill="white"/>
<path d="M270.73 124.177C270.731 126.023 270.184 127.827 269.159 129.362C268.133 130.897 266.676 132.094 264.971 132.8C263.266 133.507 261.39 133.692 259.579 133.333C257.769 132.973 256.106 132.085 254.801 130.78C253.495 129.475 252.606 127.812 252.246 126.002C251.885 124.192 252.07 122.315 252.775 120.61C253.481 118.905 254.677 117.447 256.212 116.421C257.746 115.395 259.55 114.848 261.396 114.847C263.871 114.848 266.244 115.831 267.994 117.58C269.745 119.33 270.729 121.702 270.73 124.177Z" fill="#2A445E"/>
<path d="M265.332 124.177C265.333 124.956 265.103 125.718 264.671 126.367C264.239 127.015 263.624 127.52 262.905 127.819C262.185 128.118 261.393 128.197 260.629 128.045C259.865 127.894 259.163 127.519 258.611 126.969C258.06 126.418 257.685 125.716 257.532 124.952C257.38 124.188 257.458 123.396 257.756 122.676C258.054 121.956 258.559 121.341 259.207 120.909C259.855 120.476 260.617 120.245 261.396 120.245C261.912 120.244 262.424 120.346 262.902 120.543C263.38 120.74 263.814 121.03 264.179 121.395C264.545 121.76 264.835 122.194 265.033 122.671C265.23 123.149 265.332 123.66 265.332 124.177Z" fill="white"/>
<path d="M89.9938 162.068C89.9929 162.624 89.7721 163.156 89.3798 163.549C88.9874 163.942 88.4554 164.164 87.8999 164.166H68.7449C68.1893 164.165 67.6569 163.943 67.2643 163.55C66.8717 163.157 66.6508 162.624 66.6499 162.068C66.6514 161.513 66.8727 160.981 67.2653 160.589C67.6579 160.197 68.1898 159.976 68.7449 159.975H87.8999C88.4548 159.976 88.9865 160.197 89.3789 160.589C89.7712 160.982 89.9923 161.513 89.9938 162.068Z" fill="#F2F9FF"/>
<path d="M56.1674 224.281C55.3792 224.281 54.6048 224.074 53.9221 223.68C53.2394 223.286 52.6724 222.72 52.2782 222.037C51.884 221.354 51.6764 220.58 51.6763 219.792C51.6762 219.004 51.8836 218.229 52.2777 217.547L78.322 172.437L104.366 217.547C104.76 218.229 104.968 219.004 104.968 219.792C104.967 220.58 104.76 221.354 104.366 222.037C103.971 222.72 103.404 223.286 102.722 223.68C102.039 224.074 101.265 224.281 100.476 224.281H56.1674Z" fill="#F2F9FF"/>
<path d="M102.55 218.594L93.4036 202.749H86.7443C86.5265 202.44 86.2377 202.187 85.902 202.013C85.5664 201.839 85.1938 201.748 84.8157 201.748C84.4376 201.748 84.0651 201.839 83.7294 202.013C83.3938 202.187 83.1049 202.44 82.8871 202.749H78.7321C78.3108 202.066 77.7219 201.502 77.0213 201.111C76.3208 200.72 75.5318 200.515 74.7296 200.515C73.9273 200.515 73.1384 200.72 72.4378 201.111C71.7373 201.502 71.1483 202.066 70.727 202.749H63.2411L54.0946 218.594C53.8843 218.958 53.7736 219.371 53.7734 219.791C53.7733 220.211 53.8838 220.624 54.0939 220.988C54.3039 221.352 54.6061 221.654 54.9701 221.865C55.334 222.075 55.7469 222.186 56.1672 222.186H100.476C100.897 222.186 101.31 222.075 101.674 221.865C102.038 221.655 102.34 221.353 102.55 220.989C102.761 220.625 102.871 220.212 102.871 219.791C102.871 219.371 102.76 218.958 102.55 218.594H102.55Z" fill="#FFC640"/>
<path d="M88.048 164.166H68.5952V189.283H88.048V164.166Z" fill="#CEE2F2"/>
<path d="M74.7354 146.46C74.7357 146.937 74.5946 147.403 74.33 147.799C74.0654 148.196 73.6892 148.505 73.2489 148.687C72.8086 148.87 72.3241 148.918 71.8565 148.825C71.389 148.732 70.9595 148.503 70.6223 148.166C70.2852 147.829 70.0555 147.4 69.9624 146.932C69.8693 146.465 69.917 145.98 70.0993 145.54C70.2817 145.099 70.5905 144.723 70.9869 144.458C71.3832 144.193 71.8491 144.052 72.3258 144.052C72.6422 144.052 72.9556 144.114 73.248 144.235C73.5403 144.355 73.806 144.533 74.0298 144.756C74.2536 144.98 74.4312 145.246 74.5522 145.538C74.6733 145.83 74.7355 146.144 74.7354 146.46Z" fill="#FFD55C"/>
<g style="mix-blend-mode:screen">
<path d="M71.8983 144.925C72.0437 145.011 72.1586 145.139 72.2271 145.294C72.2956 145.448 72.3141 145.619 72.2801 145.785C72.2461 145.95 72.1613 146.1 72.0376 146.215C71.9139 146.329 71.7574 146.402 71.59 146.424C71.4227 146.445 71.253 146.413 71.1046 146.333C70.9561 146.253 70.8365 146.128 70.7624 145.977C70.6883 145.825 70.6634 145.655 70.6913 145.488C70.7191 145.322 70.7983 145.168 70.9178 145.049C71.0332 144.906 71.2 144.812 71.3829 144.789C71.5659 144.766 71.7506 144.815 71.8983 144.925Z" fill="#FFC640"/>
</g>
<path d="M81.146 136.128C81.146 136.507 81.0338 136.877 80.8236 137.191C80.6134 137.506 80.3146 137.751 79.965 137.896C79.6154 138.041 79.2308 138.079 78.8597 138.005C78.4886 137.931 78.1477 137.749 77.8802 137.481C77.6126 137.214 77.4304 136.873 77.3566 136.502C77.2828 136.131 77.3207 135.746 77.4654 135.396C77.6102 135.047 77.8554 134.748 78.1701 134.538C78.4847 134.328 78.8545 134.215 79.2329 134.215C79.4842 134.215 79.7331 134.264 79.9654 134.36C80.1976 134.456 80.4086 134.597 80.5863 134.775C80.764 134.953 80.9049 135.164 81.001 135.396C81.097 135.628 81.1463 135.877 81.146 136.128Z" fill="#FFD55C"/>
<g style="mix-blend-mode:screen">
<path d="M78.8932 134.909C79.0082 134.977 79.099 135.08 79.1529 135.202C79.2068 135.324 79.2212 135.46 79.194 135.591C79.1667 135.722 79.0993 135.841 79.0011 135.932C78.9028 136.022 78.7787 136.08 78.6461 136.097C78.5135 136.113 78.379 136.088 78.2615 136.024C78.144 135.961 78.0493 135.862 77.9907 135.742C77.9321 135.622 77.9125 135.486 77.9347 135.354C77.9568 135.223 78.0197 135.101 78.1143 135.007C78.2062 134.893 78.3387 134.819 78.4841 134.801C78.6294 134.782 78.7761 134.821 78.8932 134.909Z" fill="#FFC640"/>
</g>
<path d="M88.1511 145.034C88.1514 145.693 87.9562 146.338 87.59 146.886C87.2239 147.435 86.7033 147.862 86.0942 148.115C85.485 148.367 84.8146 148.434 84.1678 148.305C83.521 148.177 82.9268 147.859 82.4604 147.393C81.994 146.927 81.6763 146.333 81.5476 145.686C81.4188 145.039 81.4847 144.369 81.737 143.76C81.9893 143.15 82.4166 142.63 82.9649 142.263C83.5131 141.897 84.1578 141.701 84.8172 141.701C85.7011 141.702 86.5487 142.053 87.1738 142.677C87.799 143.302 88.1505 144.15 88.1511 145.034Z" fill="#FFD55C"/>
<g style="mix-blend-mode:screen">
<path d="M84.2841 142.902C84.4937 143.025 84.6596 143.211 84.7584 143.434C84.8573 143.656 84.8842 143.903 84.8353 144.142C84.7865 144.38 84.6644 144.597 84.4861 144.763C84.3078 144.928 84.0822 145.034 83.8409 145.065C83.5996 145.096 83.3547 145.05 83.1404 144.935C82.9261 144.82 82.7532 144.641 82.6458 144.423C82.5383 144.204 82.5019 143.958 82.5414 143.718C82.5809 143.478 82.6945 143.256 82.8662 143.084C83.0331 142.876 83.2741 142.741 83.5385 142.707C83.8029 142.673 84.0701 142.743 84.2841 142.902Z" fill="#FFC640"/>
</g>
<path d="M78.4825 156.191C78.4828 156.49 78.3944 156.782 78.2285 157.031C78.0627 157.279 77.8268 157.473 77.5507 157.588C77.2746 157.702 76.9708 157.732 76.6776 157.674C76.3844 157.616 76.115 157.472 75.9035 157.261C75.6921 157.05 75.548 156.781 75.4896 156.487C75.4312 156.194 75.461 155.89 75.5753 155.614C75.6897 155.338 75.8833 155.102 76.1318 154.936C76.3804 154.77 76.6726 154.681 76.9715 154.681C77.3717 154.682 77.7554 154.841 78.0385 155.124C78.3217 155.407 78.4813 155.79 78.4825 156.191Z" fill="#FFD55C"/>
<g style="mix-blend-mode:screen">
<path d="M76.7292 155.223C76.8008 155.32 76.8322 155.441 76.817 155.56C76.8018 155.68 76.741 155.789 76.6474 155.865C76.5815 155.904 76.506 155.923 76.4295 155.921C76.353 155.919 76.2786 155.896 76.2147 155.854C76.1508 155.812 76.1001 155.752 76.0681 155.683C76.0362 155.613 76.0244 155.536 76.034 155.46C76.0437 155.385 76.0745 155.313 76.1228 155.254C76.1712 155.194 76.2352 155.15 76.3076 155.125C76.38 155.1 76.4578 155.096 76.5324 155.114C76.6069 155.131 76.6751 155.169 76.7292 155.223Z" fill="#FFC640"/>
</g>
<path d="M85.6864 204.111C85.6872 204.283 85.637 204.452 85.5421 204.595C85.4472 204.739 85.3118 204.851 85.1532 204.917C84.9945 204.984 84.8197 205.002 84.6509 204.969C84.482 204.936 84.3268 204.853 84.2048 204.732C84.0827 204.611 83.9994 204.456 83.9654 204.288C83.9314 204.119 83.9482 203.944 84.0136 203.785C84.0791 203.626 84.1902 203.49 84.3331 203.394C84.4759 203.298 84.644 203.247 84.816 203.247C85.0458 203.247 85.2663 203.338 85.4293 203.5C85.5923 203.662 85.6847 203.882 85.6864 204.111Z" fill="#E1EFFA"/>
<path d="M84.6765 203.558C84.718 203.614 84.7364 203.683 84.728 203.752C84.7196 203.82 84.6849 203.883 84.6313 203.927C84.5875 203.981 84.5245 204.016 84.4554 204.025C84.3863 204.034 84.3165 204.016 84.2603 203.975C84.2269 203.916 84.2136 203.849 84.2224 203.783C84.2312 203.716 84.2616 203.654 84.309 203.607C84.3564 203.56 84.4181 203.529 84.4845 203.52C84.551 203.512 84.6184 203.525 84.6765 203.558Z" fill="white"/>
<path d="M76.7134 205.229C76.7137 205.621 76.5976 206.005 76.3798 206.331C76.162 206.658 75.8523 206.912 75.4898 207.063C75.1274 207.213 74.7285 207.252 74.3436 207.176C73.9587 207.1 73.6052 206.911 73.3276 206.633C73.05 206.356 72.861 206.003 72.7843 205.618C72.7077 205.233 72.7469 204.834 72.8969 204.472C73.047 204.109 73.3013 203.799 73.6275 203.581C73.9537 203.363 74.3373 203.247 74.7297 203.247C75.2556 203.247 75.76 203.455 76.132 203.827C76.504 204.199 76.7131 204.703 76.7134 205.229Z" fill="#E1EFFA"/>
<path d="M74.4093 203.959C74.4871 204.092 74.5188 204.246 74.4994 204.399C74.48 204.551 74.4106 204.693 74.302 204.801C74.1934 204.91 74.0518 204.98 73.8994 204.999C73.747 205.019 73.5924 204.988 73.4598 204.91C73.3659 204.783 73.325 204.624 73.3455 204.467C73.366 204.31 73.4464 204.167 73.5699 204.068C73.6681 203.944 73.8108 203.863 73.9675 203.843C74.1243 203.823 74.2828 203.864 74.4093 203.959Z" fill="white"/>
<path d="M71.8348 214.423C71.8343 214.956 71.6758 215.477 71.3795 215.919C71.0831 216.362 70.6622 216.706 70.17 216.91C69.6777 217.113 69.1362 217.166 68.6139 217.062C68.0916 216.957 67.6119 216.7 67.2356 216.324C66.8593 215.947 66.6032 215.467 66.4996 214.944C66.3961 214.422 66.4498 213.88 66.6539 213.388C66.8581 212.896 67.2035 212.476 67.6465 212.18C68.0896 211.885 68.6103 211.727 69.1429 211.727C69.4967 211.728 69.847 211.797 70.1738 211.933C70.5006 212.069 70.7974 212.267 71.0474 212.518C71.2974 212.768 71.4956 213.065 71.6307 213.392C71.7658 213.719 71.8352 214.07 71.8348 214.423Z" fill="#E1EFFA"/>
<path d="M68.7084 212.698C68.878 212.797 69.0123 212.947 69.0924 213.127C69.1726 213.306 69.1946 213.506 69.1555 213.699C69.1163 213.892 69.0178 214.067 68.8739 214.201C68.73 214.335 68.5479 214.42 68.3529 214.446C68.158 214.471 67.96 214.435 67.7868 214.342C67.6135 214.249 67.4736 214.104 67.3867 213.928C67.2998 213.751 67.2702 213.552 67.302 213.358C67.3338 213.164 67.4255 212.985 67.5642 212.846C67.6979 212.677 67.8924 212.567 68.1062 212.539C68.32 212.511 68.5361 212.568 68.7084 212.698Z" fill="white"/>
<path d="M86.6441 211.136C86.6451 211.953 86.4037 212.753 85.9503 213.433C85.497 214.113 84.8521 214.643 84.0973 214.957C83.3424 215.27 82.5116 215.353 81.7098 215.194C80.908 215.035 80.1714 214.642 79.593 214.065C79.0147 213.487 78.6206 212.751 78.4607 211.949C78.3008 211.148 78.3822 210.317 78.6947 209.562C79.0071 208.806 79.5365 208.161 80.216 207.706C80.8954 207.252 81.6944 207.01 82.5117 207.009C83.6065 207.01 84.6563 207.445 85.431 208.218C86.2056 208.992 86.6419 210.041 86.6441 211.136Z" fill="#E1EFFA"/>
<path d="M81.8471 208.498C82.1065 208.651 82.3116 208.881 82.4338 209.156C82.5559 209.431 82.589 209.737 82.5284 210.032C82.4677 210.327 82.3164 210.595 82.0956 210.8C81.8748 211.004 81.5955 211.135 81.2969 211.173C80.9983 211.211 80.6953 211.154 80.4303 211.012C80.1654 210.869 79.9517 210.647 79.8192 210.376C79.6867 210.106 79.642 209.801 79.6915 209.504C79.7409 209.207 79.8819 208.933 80.0948 208.721C80.3008 208.463 80.5989 208.296 80.9259 208.254C81.2529 208.213 81.5833 208.3 81.8471 208.498Z" fill="white"/>
<path d="M90.744 218.011C90.7434 218.248 90.6728 218.479 90.5409 218.675C90.4091 218.871 90.2221 219.024 90.0034 219.114C89.7847 219.205 89.5442 219.228 89.3123 219.181C89.0804 219.135 88.8675 219.021 88.7005 218.853C88.5334 218.686 88.4198 218.473 88.3738 218.241C88.3279 218.009 88.3518 217.768 88.4424 217.55C88.5331 217.331 88.6865 217.145 88.8832 217.013C89.0799 216.882 89.3111 216.812 89.5476 216.812C89.8653 216.812 90.1698 216.939 90.3941 217.164C90.6185 217.389 90.7443 217.693 90.744 218.011Z" fill="#E1EFFA"/>
<path d="M89.3545 217.245C89.4013 217.325 89.4202 217.418 89.4081 217.51C89.396 217.602 89.3537 217.688 89.2877 217.753C89.2218 217.818 89.136 217.86 89.0438 217.871C88.9517 217.882 88.8584 217.863 88.7788 217.815C88.7322 217.735 88.7136 217.641 88.7258 217.55C88.738 217.458 88.7804 217.373 88.8462 217.307C88.9121 217.242 88.9977 217.201 89.0897 217.189C89.1817 217.178 89.2748 217.198 89.3545 217.245Z" fill="white"/>
</g>
<defs>
<clipPath id="clip0_446_1952">
<rect width="320" height="226" fill="white"/>
</clipPath>
</defs>
</svg>
