<svg width="320" height="226" viewBox="0 0 320 226" fill="none" xmlns="http://www.w3.org/2000/svg">
<g clip-path="url(#clip0_448_2760)">
<path d="M300 0H20C8.9543 0 0 8.9543 0 20V206C0 217.046 8.9543 226 20 226H300C311.046 226 320 217.046 320 206V20C320 8.9543 311.046 0 300 0Z" fill="#34A853" fill-opacity="0.04"/>
<path d="M169.84 226.319H40V21.7225C40 18.5618 42.5623 16 45.723 16H164.117C167.278 16 169.84 18.5618 169.84 21.7225V226.319Z" fill="#CCE9D4"/>
<path d="M162.865 71.7986H46.9746V24.9419H162.865V71.7986Z" fill="#7EDE98"/>
<path d="M162.865 133.836H46.9746V86.9794H162.865V133.836Z" fill="#7EDE98"/>
<path d="M162.865 215.589H46.9746V149.017H162.865V215.589Z" fill="#7EDE98"/>
<path d="M76.5737 42.8264H75.6459V39.1398C75.6459 38.7526 75.3315 38.4382 74.9443 38.4382H65.9303C65.5425 38.4382 65.2282 38.7526 65.2282 39.1398V42.8264H64.3004C62.3745 42.8264 60.813 44.3874 60.813 46.3138V69.8794C60.813 70.5975 61.3948 71.1793 62.113 71.1793H78.7616C79.4792 71.1793 80.0611 70.5975 80.0611 69.8794V46.3138C80.0611 44.3874 78.4996 42.8264 76.5737 42.8264Z" fill="#E1F2E5"/>
<path d="M58.9819 52.4841H52.5632C52.0943 52.4841 51.7139 52.8645 51.7139 53.3334V55.0326C51.7139 55.5016 52.0943 55.882 52.5632 55.882H52.6876V68.0943C52.6876 69.7976 54.0683 71.1792 55.7725 71.1792C57.4763 71.1792 58.8575 69.7976 58.8575 68.0943V55.882H58.9819C59.4508 55.882 59.8312 55.5016 59.8312 55.0326V53.3334C59.8312 52.8645 59.4508 52.4841 58.9819 52.4841Z" fill="#E1F2E5"/>
<path d="M91.3505 53.6462H91.8648V52.4839C92.309 52.4839 92.6697 52.1237 92.6697 51.6795V49.175C92.6697 48.7308 92.309 48.3701 91.8648 48.3701H84.9791C84.5344 48.3701 84.1742 48.7308 84.1742 49.175V51.6795C84.1742 52.1237 84.5344 52.4839 84.9791 52.4839V53.6462H85.4935C83.8512 53.6462 82.52 54.9774 82.52 56.6192V69.5886C82.52 70.4669 83.2322 71.179 84.1105 71.179H92.7335C93.6118 71.179 94.3235 70.4669 94.3235 69.5886V56.6192C94.3235 54.9774 92.9927 53.6462 91.3505 53.6462Z" fill="#E1F2E5"/>
<path d="M60.0306 126.11C60.0306 127.74 61.3517 129.061 62.9816 129.061C64.611 129.061 65.9326 127.74 65.9326 126.11V113.323H67.8997V126.11C67.8997 127.74 69.2208 129.061 70.8507 129.061C72.4802 129.061 73.8017 127.74 73.8017 126.11V113.323H75.7689V126.11C75.7689 127.74 77.0899 129.061 78.7198 129.061C80.3497 129.061 81.6708 127.74 81.6708 126.11V113.323H83.638V126.11C83.638 127.74 84.959 129.061 86.5889 129.061C88.2188 129.061 89.5399 127.74 89.5399 126.11V113.323H91.5071V126.11C91.5071 127.74 92.8282 129.061 94.458 129.061C96.0879 129.061 97.409 127.74 97.409 126.11V113.323H99.2082V111.892H97.409V100.873H91.5071V111.892H89.5399V100.873H83.638V111.892H81.6708V100.873H75.7689V111.892H73.8017V100.873H67.8997V111.892H65.9326V100.873H60.0306V111.892H58.231V113.323H60.0306V126.11Z" fill="#E1F2E5"/>
<path d="M57.7891 132.963H99.6497V130.134H57.7891V132.963Z" fill="#E1F2E5"/>
<path d="M113.415 71.179H103.758C102.819 71.179 102.059 70.4182 102.059 69.4799V30.2178C102.059 29.2794 102.819 28.5186 103.758 28.5186H113.415C114.353 28.5186 115.114 29.2794 115.114 30.2178V69.4799C115.114 70.4182 114.353 71.179 113.415 71.179Z" fill="#E1F2E5"/>
<path d="M121.423 71.179H117.211C116.571 71.179 116.053 70.6605 116.053 70.0213V32.7168C116.053 32.0776 116.571 31.5591 117.211 31.5591H121.423C122.063 31.5591 122.581 32.0776 122.581 32.7168V70.0213C122.581 70.6605 122.063 71.179 121.423 71.179Z" fill="#E1F2E5"/>
<path d="M128.96 71.179H124.885C124.208 71.179 123.659 70.6298 123.659 69.9525V27.9565C123.659 27.2792 124.208 26.7304 124.885 26.7304H128.96C129.638 26.7304 130.187 27.2792 130.187 27.9565V69.9525C130.187 70.6298 129.638 71.179 128.96 71.179Z" fill="#E1F2E5"/>
<path d="M105.327 186.64H106.255V182.954C106.255 182.567 106.569 182.252 106.956 182.252H115.97C116.358 182.252 116.672 182.567 116.672 182.954V186.64H117.6C119.526 186.64 121.087 188.201 121.087 190.128V213.693C121.087 214.411 120.506 214.993 119.788 214.993H103.139C102.421 214.993 101.839 214.411 101.839 213.693V190.128C101.839 188.201 103.401 186.64 105.327 186.64Z" fill="#E1F2E5"/>
<path d="M122.918 196.298H129.337C129.806 196.298 130.186 196.679 130.186 197.148V198.847C130.186 199.316 129.806 199.696 129.337 199.696H129.212V211.908C129.212 213.612 127.831 214.993 126.128 214.993C124.424 214.993 123.043 213.612 123.043 211.908V199.696H122.918C122.449 199.696 122.069 199.316 122.069 198.847V197.148C122.069 196.679 122.449 196.298 122.918 196.298Z" fill="#E1F2E5"/>
<path d="M90.5501 197.46H90.0362V196.298C89.5916 196.298 89.2314 195.938 89.2314 195.493V192.989C89.2314 192.545 89.5916 192.184 90.0362 192.184H96.9215C97.3662 192.184 97.7264 192.545 97.7264 192.989V195.493C97.7264 195.938 97.3662 196.298 96.9215 196.298V197.46H96.4076C98.0494 197.46 99.3806 198.791 99.3806 200.434V213.402C99.3806 214.281 98.6684 214.993 97.7902 214.993H89.1671C88.2889 214.993 87.5771 214.281 87.5771 213.402V200.434C87.5771 198.791 88.9079 197.46 90.5501 197.46Z" fill="#E1F2E5"/>
<path d="M73.891 214.993L83.3019 212.824C84.2165 212.614 84.7868 211.702 84.5762 210.787L75.7605 172.528C75.5498 171.613 74.6376 171.043 73.7235 171.254L64.3122 173.422C63.3981 173.632 62.8277 174.545 63.0384 175.459L71.8541 213.719C72.0647 214.634 72.9765 215.204 73.891 214.993Z" fill="#E1F2E5"/>
<path d="M57.2832 214.993H61.4956C62.1348 214.993 62.6533 214.475 62.6533 213.836V176.531C62.6533 175.891 62.1348 175.373 61.4956 175.373H57.2832C56.6435 175.373 56.1255 175.891 56.1255 176.531V213.836C56.1255 214.475 56.6435 214.993 57.2832 214.993Z" fill="#E1F2E5"/>
<path d="M49.7461 214.993H53.8213C54.4981 214.993 55.0474 214.444 55.0474 213.767V171.771C55.0474 171.094 54.4981 170.545 53.8213 170.545H49.7461C49.0688 170.545 48.5195 171.094 48.5195 171.771V213.767C48.5195 214.444 49.0688 214.993 49.7461 214.993Z" fill="#E1F2E5"/>
<g opacity="0.300003">
<g opacity="0.300003">
<path opacity="0.300003" d="M280 59.8199L252.102 88.004C249.342 90.7925 245.581 92.3614 241.658 92.3614H197.992V59.8199H280Z" fill="#7EDE98"/>
</g>
</g>
<path d="M280 59.8199H198.042V55.5066H280V59.8199Z" fill="#7EDE98"/>
<path d="M263.791 54.7744H229.595C228.924 54.7744 228.38 54.2306 228.38 53.5598V41.1887C228.38 40.5174 228.924 39.9736 229.595 39.9736H263.791C267.612 39.9736 270.709 43.071 270.709 46.892V47.856C270.709 51.677 267.612 54.7744 263.791 54.7744Z" fill="#7EDE98"/>
<path d="M263.091 53.2226H228.38V41.8432H263.091C266.156 41.8432 268.64 44.3275 268.64 47.3918V47.6735C268.64 50.7383 266.156 53.2226 263.091 53.2226Z" fill="#E1F2E5"/>
<path d="M268.963 39.3398H235.535V32.4862H268.963C270.856 32.4862 272.39 34.0202 272.39 35.913C272.39 37.8054 270.856 39.3398 268.963 39.3398Z" fill="#7EDE98"/>
<path d="M268.425 38.4346H235.535V33.6932H268.425C269.686 33.6932 270.709 34.716 270.709 35.9774V36.1504C270.709 37.4118 269.686 38.4346 268.425 38.4346Z" fill="#E1F2E5"/>
<path d="M258.565 31.9688H225.136V25.1152H258.565C260.457 25.1152 261.992 26.6497 261.992 28.542C261.992 30.4348 260.457 31.9688 258.565 31.9688Z" fill="#7EDE98"/>
<path d="M258.026 31.0636H225.136V26.3222H258.026C259.287 26.3222 260.311 27.345 260.311 28.6064V28.7794C260.311 30.0408 259.287 31.0636 258.026 31.0636Z" fill="#E1F2E5"/>
<path d="M192.153 30.7374C192.153 30.7374 184.997 15.5907 160.488 24.1201C135.979 32.6491 133.901 61.8945 134.508 78.8239C134.95 91.1165 118.627 102.794 125.244 124.558C131.861 146.322 179.36 134.508 179.36 134.508C179.36 134.508 206.124 99.0196 206.124 72.8931C206.124 72.8931 212.594 35.5904 192.153 30.7374Z" fill="#352824"/>
<path d="M189.49 115.973C189.49 115.973 186.615 109.46 182.743 108.088H181.419V115.973H189.49Z" fill="#DCDCF4"/>
<path d="M141.52 75.0748C141.52 75.0748 142.997 88.2626 136.572 98.3715C130.148 108.48 127.206 125.538 143.676 131.42H171.323L170.048 75.0748H141.52Z" fill="#231A18"/>
<path d="M157.467 115.973C157.467 115.973 160.343 109.46 164.215 108.088H165.538V115.973H157.467Z" fill="#DCDCF4"/>
<path d="M182.744 126.029H163.627V102.059H182.744V126.029Z" fill="#E8AD85"/>
<path d="M175.93 105.343H170.441C157.392 105.343 146.814 94.765 146.814 81.7162V52.7956C146.814 45.9736 152.344 40.4429 159.166 40.4429H187.205C194.027 40.4429 199.557 45.9736 199.557 52.7956V81.7162C199.557 94.765 188.979 105.343 175.93 105.343Z" fill="#F9C9A5"/>
<path d="M199.557 66.1285C199.557 66.1285 200.769 63.5363 204.165 64.1677C208.381 64.9519 210.831 77.8929 199.557 82.3044V66.1285Z" fill="#E8AD85"/>
<path d="M146.814 66.1285C146.814 66.1285 145.601 63.5363 142.206 64.1677C137.99 64.9519 135.539 77.8929 146.814 82.3044V66.1285Z" fill="#E8AD85"/>
<path d="M189.606 72.0597C189.606 74.4151 188.07 76.324 186.175 76.324C184.28 76.324 182.744 74.4151 182.744 72.0597C182.744 69.7044 184.28 67.795 186.175 67.795C188.07 67.795 189.606 69.7044 189.606 72.0597Z" fill="#352824"/>
<path d="M180.881 64.0685C180.881 64.0685 184.116 58.9718 190.88 59.952" stroke="#352824" stroke-width="3.41867" stroke-miterlimit="10"/>
<path d="M156.765 72.0597C156.765 74.4151 158.301 76.324 160.197 76.324C162.091 76.324 163.628 74.4151 163.628 72.0597C163.628 69.7044 162.091 67.795 160.197 67.795C158.301 67.795 156.765 69.7044 156.765 72.0597Z" fill="#352824"/>
<path d="M165.49 64.0685C165.49 64.0685 162.255 58.9718 155.491 59.952" stroke="#352824" stroke-width="3.41867" stroke-miterlimit="10"/>
<path d="M170.048 82.3044C170.048 82.3044 173.186 85.3435 176.322 82.3044" stroke="#C9886F" stroke-width="2.564" stroke-miterlimit="10"/>
<path d="M165.538 90.0491C165.538 90.0491 173.185 94.853 180.832 90.0491" stroke="#EF896A" stroke-width="2.564" stroke-miterlimit="10"/>
<path d="M186.175 47.5015C186.175 47.5015 180.587 39.2667 170.048 43.6782C159.509 48.0898 165.685 57.207 144.215 60.4425C144.215 60.4425 144.362 42.5017 150.979 39.5608C157.597 36.6195 191.714 38.3843 191.714 38.3843C191.714 38.3843 201.42 43.8884 201.861 49.1507C202.302 54.4134 199.557 64.0685 199.557 64.0685C199.557 64.0685 197.253 47.9425 186.175 47.5015Z" fill="#352824"/>
<path d="M163.628 119.068C163.628 119.068 166.813 123.872 173.186 123.872V177.497H160.833V119.068H163.628Z" fill="#34A853"/>
<path d="M162.628 115.558H158.624C158.618 115.56 158.611 115.562 158.604 115.564C158.502 115.595 158.351 115.64 158.157 115.701C157.77 115.821 157.213 116 156.543 116.231C155.199 116.695 153.406 117.366 151.595 118.199C149.776 119.037 147.98 120.019 146.607 121.095C145.199 122.197 144.413 123.259 144.275 124.212L144.275 124.212C144.191 124.787 144.171 125.934 144.22 127.609C144.268 129.256 144.379 131.34 144.536 133.742C144.849 138.545 145.342 144.583 145.863 150.872C145.922 151.587 145.981 152.305 146.041 153.025C147.03 164.943 148.062 177.375 148.108 183.569M148.108 183.569C148.108 183.569 148.108 183.569 148.108 183.569L147.108 183.576L148.108 183.569Z" fill="white" stroke="#CEDADD" stroke-width="2"/>
<path d="M163.628 119.068V114.558H158.481C158.481 114.558 158.168 114.648 157.644 114.814C155.324 118.228 152.595 123.144 149.952 130.048C149.265 132.891 157.99 148.283 157.99 148.283C157.99 148.283 150.736 156.91 151.03 158.184C151.324 159.459 163.873 173.87 173.186 174.066C160.932 155.538 163.628 119.068 163.628 119.068Z" fill="#34A853" fill-opacity="0.05"/>
<path d="M162.108 194.115C162.108 192.842 161.076 191.811 159.804 191.811H146.444C144.453 206.202 138.677 226.32 138.677 226.32H162.108V194.115Z" fill="#34A853" fill-opacity="0.1"/>
<path d="M182.745 119.068C182.745 119.068 179.559 123.872 173.186 123.872V177.497H185.539V119.068H182.745Z" fill="#34A853"/>
<path d="M183.745 119.032L183.75 119.105C183.755 119.177 183.762 119.283 183.77 119.421C183.787 119.696 183.81 120.102 183.835 120.623C183.886 121.666 183.943 123.173 183.974 125.039C184.036 128.77 183.99 133.939 183.558 139.694C182.706 151.051 180.341 164.878 174.186 174.364V225.32H206.374C206.371 225.308 206.368 225.297 206.365 225.286C206.131 224.445 205.797 223.23 205.397 221.732C204.597 218.737 203.532 214.606 202.469 210.065C200.353 201.025 198.214 190.226 198.264 183.569C198.31 177.374 199.342 164.941 200.331 153.022C200.391 152.303 200.451 151.586 200.51 150.872C201.031 144.583 201.523 138.545 201.837 133.742C201.993 131.34 202.105 129.256 202.152 127.609C202.201 125.934 202.181 124.787 202.098 124.212C201.959 123.259 201.174 122.197 199.765 121.095C198.392 120.019 196.596 119.037 194.777 118.199C192.966 117.366 191.173 116.695 189.829 116.231C189.159 116 188.602 115.821 188.215 115.701C188.021 115.64 187.87 115.595 187.768 115.564C187.761 115.562 187.754 115.56 187.748 115.558H183.745V119.032Z" fill="white" stroke="#CEDADD" stroke-width="2"/>
<path d="M182.745 119.068V114.558H187.891C187.891 114.558 188.204 114.648 188.729 114.814C191.048 118.228 193.778 123.144 196.421 130.048C197.107 132.891 188.382 148.283 188.382 148.283C188.382 148.283 195.637 156.91 195.342 158.184C195.048 159.459 182.5 173.87 173.186 174.066C185.441 155.538 182.745 119.068 182.745 119.068Z" fill="#34A853" fill-opacity="0.05"/>
<path d="M184.264 194.115C184.264 192.842 185.296 191.811 186.568 191.811H199.929C201.919 206.202 207.695 226.32 207.695 226.32H184.264V194.115Z" fill="#34A853" fill-opacity="0.1"/>
<path d="M100.689 128.234C100.689 128.234 103.63 119.705 103.336 117.205C103.041 114.706 100.395 106.029 98.1887 106.911C95.983 107.794 95.8357 111.911 97.0122 114.558C98.1887 117.205 93.3358 115.588 89.9535 114.043C86.5711 112.499 76.1305 110.588 73.9248 110.882C71.719 111.176 71.719 112.647 71.719 112.647C71.719 112.647 67.3345 111.481 66.7192 114.043C66.3484 115.588 68.0426 115.973 68.0426 115.973C68.0426 115.973 64.2927 117.426 67.8049 120.292C67.8049 120.292 66.7926 123.676 68.7042 125.146C70.6159 126.617 92.7475 137.646 92.7475 137.646L100.689 128.234Z" fill="#F9C9A5"/>
<path d="M143.466 127.329L127.383 149.844L126.734 150.752L125.903 150.008L101.268 127.967C101.037 128.093 100.742 128.261 100.394 128.475C99.4689 129.043 98.1719 129.931 96.7107 131.196C93.8833 133.644 90.4438 137.503 87.889 143.201C88.1324 143.479 88.4772 143.874 88.9104 144.368C89.8283 145.416 91.1427 146.916 92.7288 148.72C95.9011 152.329 100.16 157.157 104.505 162.035C108.851 166.914 113.281 171.839 116.797 175.645C118.556 177.548 120.081 179.165 121.25 180.355C121.835 180.95 122.325 181.431 122.707 181.785C122.898 181.962 123.055 182.102 123.181 182.205C123.243 182.256 123.293 182.296 123.333 182.324C123.352 182.339 123.367 182.349 123.378 182.357L143.466 127.329ZM143.466 127.329L146.713 162.775L143.466 127.329Z" fill="white" stroke="#CEDADD" stroke-width="2"/>
<path d="M71.7183 112.647C71.7183 112.647 82.5269 114.632 84.2178 115.294" stroke="#C9886F" stroke-width="2.564" stroke-miterlimit="10"/>
<path d="M68.042 115.973C68.042 115.973 78.8506 118.088 80.0271 118.749" stroke="#C9886F" stroke-width="2.564" stroke-miterlimit="10"/>
<path d="M67.8047 120.293C67.8047 120.293 75.9097 122.573 77.3803 123.014" stroke="#C9886F" stroke-width="2.564" stroke-miterlimit="10"/>
<path d="M84.8288 115.294C81.4698 116.176 77.9678 123.014 77.9678 123.014C77.9678 123.014 85.0697 118.109 91.709 124.558" stroke="#C9886F" stroke-width="2.564" stroke-miterlimit="10"/>
<path d="M231.989 107.281C232.246 107.343 232.56 107.422 232.92 107.519C233.976 107.805 235.422 108.243 236.985 108.856C240.161 110.102 243.615 111.99 245.396 114.606L246.222 114.043L245.396 114.606C247.162 117.201 247.402 119.647 246.771 123.081C246.45 124.826 245.909 126.797 245.234 129.157C245.13 129.519 245.024 129.889 244.915 130.268C244.316 132.352 243.638 134.708 242.95 137.398C242.338 139.791 241.814 142.126 241.319 144.329C241.156 145.052 240.997 145.761 240.839 146.453C240.196 149.269 239.572 151.804 238.82 153.972C237.303 158.342 235.391 160.864 232.15 161.363L231.989 107.281ZM231.989 107.281L210.924 153.017C211.339 153.286 211.924 153.657 212.64 154.094C214.151 155.018 216.241 156.236 218.564 157.415C220.89 158.597 223.429 159.729 225.839 160.492C228.273 161.263 230.467 161.621 232.15 161.363L231.989 107.281Z" fill="white" stroke="#CEDADD" stroke-width="2"/>
<path d="M187.401 154.792H229.164C230.621 154.792 231.802 153.611 231.802 152.155V91.2258C231.802 89.7693 230.621 88.5885 229.164 88.5885H187.401C185.944 88.5885 184.764 89.7693 184.764 91.2258V152.155C184.764 153.611 185.944 154.792 187.401 154.792Z" fill="white" stroke="#262626"/>
<path d="M229.213 104.559H218.478V92.1843H229.213V104.559Z" fill="#34A853" fill-opacity="0.25"/>
<path d="M224.703 137.744L226.566 139.705L230.781 134.508" stroke="#262626" stroke-width="2.564" stroke-miterlimit="10"/>
<path d="M215.538 95.1252H188.627V92.1839H215.538V95.1252Z" fill="#34A853" fill-opacity="0.15"/>
<path d="M215.538 99.8419H188.627V96.9006H215.538V99.8419Z" fill="#34A853" fill-opacity="0.15"/>
<path d="M215.538 104.559H188.627V101.618H215.538V104.559Z" fill="#34A853" fill-opacity="0.15"/>
<path d="M229.214 127.696H188.626V111.051H229.214V127.696Z" fill="#34A853" fill-opacity="0.15"/>
<path d="M218.479 141.175H188.627V136.322H218.479V141.175Z" fill="#34A853" fill-opacity="0.15"/>
<path d="M228.626 141.261H223.602V136.237H228.626V141.261Z" fill="#34A853" fill-opacity="0.15"/>
<path d="M218.479 149.9H188.627V145.048H218.479V149.9Z" fill="#34A853" fill-opacity="0.15"/>
<path d="M228.626 149.986H223.602V144.962H228.626V149.986Z" fill="#34A853" fill-opacity="0.15"/>
<path d="M224.703 146.469L226.566 148.43L230.781 143.233" stroke="#262626" stroke-width="2.564" stroke-miterlimit="10"/>
<path d="M241.223 111.051C241.223 111.051 245.732 113.578 245.928 118.088C246.124 122.597 244.458 129.852 234.752 127.303C228.625 125.048 229.752 115.973 229.752 115.973C229.752 115.973 233.772 108.72 241.223 111.051Z" fill="#DCDCF4"/>
<path d="M230.049 121.246C230.593 123.671 231.869 126.242 234.752 127.303C238.279 128.229 240.74 127.857 242.44 126.797C243.281 122.376 243.281 116.617 243.281 116.617L233.87 117.892C233.87 117.892 231.653 119.23 230.049 121.246Z" fill="#E8AD85"/>
<path d="M243.281 116.617C243.281 116.617 242.889 109.166 239.163 103.088C235.438 97.0101 233.707 95.6372 229.671 97.6961C225.635 99.7546 218.674 105.441 219.164 107.402C219.655 109.362 221.027 109.951 221.027 109.951C221.027 109.951 218.685 113.108 222.596 114.95C222.596 114.95 222.244 117.978 223.601 119.068C224.956 120.158 227.105 119.852 227.105 119.852C227.105 119.852 227.375 123.382 231.21 122.695C235.047 122.009 242.399 119.601 243.281 116.617Z" fill="#F9C9A5"/>
<path d="M221.027 109.951L230.782 102.058" stroke="#C9886F" stroke-width="2.564" stroke-miterlimit="10"/>
<path d="M222.596 114.95L231.21 107.107" stroke="#C9886F" stroke-width="2.564" stroke-miterlimit="10"/>
<path d="M227.105 119.852L233.576 114.558" stroke="#C9886F" stroke-width="2.564" stroke-miterlimit="10"/>
<path d="M158.735 112.647C158.735 112.647 148.586 115.848 145.098 143.234" stroke="#24243A" stroke-width="3.41867" stroke-miterlimit="10"/>
<path d="M152.108 172.539C151.984 173.399 151.58 174.188 150.956 174.794C148.895 176.798 143.596 181.022 135.834 180.684" stroke="#B2B2B2" stroke-width="3.41867" stroke-miterlimit="10"/>
<path d="M137.222 172.357C136.689 168.05 134.082 143.144 145.098 143.234C155.695 143.32 152.933 166.839 152.108 172.539" stroke="#24243A" stroke-width="3.41867" stroke-miterlimit="10"/>
<path d="M153.48 180.684C153.48 180.684 141.296 180.87 137.565 173.545C137.376 173.174 137.273 172.77 137.222 172.357" stroke="#B2B2B2" stroke-width="3.41867" stroke-miterlimit="10"/>
<path d="M198.087 155.292C198.087 155.292 198.872 157.4 198.969 159.655" stroke="#24243A" stroke-width="3.41867" stroke-miterlimit="10"/>
<path d="M203.516 163.587C203.516 166.018 201.546 167.988 199.116 167.988C196.685 167.988 194.715 166.018 194.715 163.587C194.715 161.157 196.685 159.187 199.116 159.187C201.546 159.187 203.516 161.157 203.516 163.587Z" fill="#24243A"/>
<path d="M201.352 163.587C201.352 164.822 200.351 165.823 199.116 165.823C197.881 165.823 196.88 164.822 196.88 163.587C196.88 162.352 197.881 161.351 199.116 161.351C200.351 161.351 201.352 162.352 201.352 163.587Z" fill="#B2B2B2"/>
<path d="M248.301 92.1842C242.346 92.1842 241.244 93.2855 241.244 99.2416C241.244 93.2855 240.143 92.1842 234.187 92.1842C240.143 92.1842 241.244 91.0829 241.244 85.1273C241.244 91.0829 242.346 92.1842 248.301 92.1842Z" fill="white"/>
<path d="M183.381 137.62C179.638 137.62 178.946 138.312 178.946 142.055C178.946 138.312 178.254 137.62 174.511 137.62C178.254 137.62 178.946 136.928 178.946 133.185C178.946 136.928 179.638 137.62 183.381 137.62Z" fill="white"/>
</g>
<defs>
<clipPath id="clip0_448_2760">
<rect width="320" height="226" fill="white"/>
</clipPath>
</defs>
</svg>
